<svg width="512" height="512" viewBox="0 0 512 512" fill="none" xmlns="http://www.w3.org/2000/svg">
<g clip-path="url(#clip0_318_3392)">
<path d="M460.049 111.809C455.855 111.809 452.455 115.209 452.455 119.403V139.147C452.455 143.341 455.855 146.741 460.049 146.741C464.243 146.741 467.643 143.341 467.643 139.147V119.403C467.643 115.209 464.243 111.809 460.049 111.809Z" fill="#EAE8B2"/>
<path d="M460.049 164.965C455.855 164.965 452.455 168.365 452.455 172.559V192.303C452.455 196.497 455.855 199.897 460.049 199.897C464.243 199.897 467.643 196.497 467.643 192.303V172.56C467.643 168.366 464.243 164.965 460.049 164.965Z" fill="#EAE8B2"/>
<path d="M496.5 148.259H476.756C472.562 148.259 469.162 151.659 469.162 155.853C469.162 160.047 472.562 163.447 476.756 163.447H496.5C500.694 163.447 504.094 160.047 504.094 155.853C504.094 151.659 500.694 148.259 496.5 148.259Z" fill="#EAE8B2"/>
<path d="M443.343 148.259H423.599C419.405 148.259 416.005 151.659 416.005 155.853C416.005 160.047 419.405 163.447 423.599 163.447H443.343C447.537 163.447 450.937 160.047 450.937 155.853C450.937 151.659 447.537 148.259 443.343 148.259Z" fill="#EAE8B2"/>
<path d="M52.51 1.83997C48.316 1.83997 44.916 5.23997 44.916 9.43397V29.178C44.916 33.372 48.316 36.772 52.51 36.772C56.704 36.772 60.104 33.372 60.104 29.178V9.43397C60.104 5.23997 56.704 1.83997 52.51 1.83997Z" fill="#EAE8B2"/>
<path d="M52.51 54.9969C48.316 54.9969 44.916 58.3969 44.916 62.5909V82.3349C44.916 86.5299 48.316 89.9289 52.51 89.9289C56.704 89.9289 60.104 86.5289 60.104 82.3349V62.5909C60.104 58.3969 56.704 54.9969 52.51 54.9969Z" fill="#EAE8B2"/>
<path d="M88.9601 38.2899H69.2161C65.0221 38.2899 61.6221 41.6899 61.6221 45.8839C61.6221 50.0779 65.0221 53.4779 69.2161 53.4779H88.9601C93.1541 53.4779 96.5541 50.0779 96.5541 45.8839C96.5541 41.6909 93.1541 38.2899 88.9601 38.2899Z" fill="#EAE8B2"/>
<path d="M35.8031 38.2899H16.0591C11.8651 38.2899 8.46509 41.6899 8.46509 45.8839C8.46509 50.0779 11.8651 53.4779 16.0591 53.4779H35.8031C39.9971 53.4779 43.3971 50.0779 43.3971 45.8839C43.3981 41.6909 39.9971 38.2899 35.8031 38.2899Z" fill="#EAE8B2"/>
<path d="M267.826 151.548C243.645 150.121 218.209 149.967 193.839 151.092C189.649 151.285 186.41 154.839 186.603 159.028C186.796 163.218 190.353 166.457 194.539 166.264C218.38 165.162 243.278 165.314 266.931 166.709C267.084 166.719 267.235 166.723 267.385 166.723C271.375 166.723 274.721 163.61 274.959 159.575C275.206 155.389 272.013 151.794 267.826 151.548Z" fill="#EAE8B2"/>
<path d="M374.096 167.922C370.056 166.8 365.869 169.162 364.745 173.203C363.621 177.244 365.985 181.431 370.026 182.555C411.837 194.185 437.809 210.943 437.809 226.288C437.809 240.519 415.833 255.875 379.024 267.368C338.392 280.054 284.224 287.042 226.499 287.042C168.774 287.042 114.606 280.055 73.974 267.368C37.164 255.876 15.188 240.519 15.188 226.289C15.188 214.561 30.31 204.43 39.324 199.434C56.432 189.951 81.283 181.82 111.186 175.919C115.3 175.107 117.978 171.113 117.166 166.998C116.354 162.883 112.353 160.205 108.245 161.018C39.454 174.591 0 198.381 0 226.288C0 241.751 12.049 263.944 69.446 281.867C111.505 294.999 167.28 302.231 226.498 302.231C285.716 302.231 341.491 294.998 383.55 281.867C440.948 263.946 452.996 241.751 452.996 226.288C452.997 202.804 424.976 182.076 374.096 167.922Z" fill="#EAE8B2"/>
<path d="M348.682 213.049L348.446 212.993C344.363 212.026 340.273 214.554 339.309 218.637C338.692 221.245 339.501 223.857 341.231 225.655C308.423 232.985 267.872 237.007 226.499 237.007C185.129 237.006 144.576 232.984 111.767 225.654C113.494 223.859 114.303 221.251 113.692 218.646C112.733 214.563 108.644 212.032 104.562 212.99L104.308 213.05C98.049 214.528 93.844 219.848 93.844 226.287C93.844 232.726 98.049 238.046 104.307 239.524L104.559 239.584C139.102 247.716 182.408 252.196 226.499 252.196C270.589 252.196 313.896 247.717 348.446 239.583L348.691 239.525C354.95 238.047 359.154 232.728 359.154 226.288C359.154 219.85 354.949 214.531 348.682 213.049Z" fill="#EAE8B2"/>
<path d="M358.768 292.917C354.574 292.917 351.174 296.317 351.174 300.511V462.89C351.174 476.633 302.605 496.594 226.498 496.594C150.391 496.594 101.822 476.632 101.822 462.89V431.364C101.822 427.17 98.422 423.77 94.228 423.77C90.034 423.77 86.634 427.17 86.634 431.364V462.889C86.634 477.733 101.874 490.339 130.706 499.34C156.401 507.363 190.421 511.781 226.499 511.781C262.577 511.781 296.597 507.362 322.292 499.34C351.124 490.338 366.364 477.733 366.364 462.889V300.512C366.363 296.318 362.962 292.917 358.768 292.917Z" fill="#EAE8B2"/>
<path d="M94.2271 292.917C90.0331 292.917 86.6331 296.317 86.6331 300.511V406.048C86.6331 410.242 90.0331 413.642 94.2271 413.642C98.4211 413.642 101.821 410.242 101.821 406.048V300.512C101.822 296.318 98.4211 292.917 94.2271 292.917Z" fill="#EAE8B2"/>
<path d="M510.635 51.049L493.261 26.133C490.861 22.692 486.128 21.849 482.688 24.247L250.962 185.815C249.31 186.967 248.183 188.728 247.829 190.711C247.475 192.694 247.923 194.736 249.076 196.387L266.45 221.303C267.926 223.42 270.287 224.554 272.686 224.554C274.186 224.554 275.7 224.111 277.023 223.189L508.75 61.622C510.403 60.47 511.53 58.709 511.883 56.726C512.236 54.743 511.787 52.7 510.635 51.049ZM274.565 206.389L265.878 193.931L485.146 41.049L493.833 53.507L274.565 206.389Z" fill="#EAE8B2"/>
<path d="M351.099 56.535L335.109 53.293C322.312 50.699 312.368 40.754 309.774 27.958L306.532 11.968C305.13 5.05097 299.222 0.219971 292.165 0.219971C285.108 0.219971 279.199 5.05097 277.797 11.968L274.555 27.958C271.961 40.755 262.016 50.699 249.22 53.293L233.23 56.535C226.313 57.937 221.482 63.847 221.482 70.903C221.482 77.961 226.313 83.868 233.23 85.27L249.22 88.512C262.017 91.106 271.961 101.051 274.555 113.847L277.797 129.837C279.199 136.754 285.109 141.585 292.165 141.585C299.223 141.585 305.131 136.754 306.532 129.837L309.774 113.847C312.368 101.05 322.313 91.106 335.109 88.512L351.099 85.27C358.016 83.868 362.847 77.96 362.847 70.903C362.847 63.846 358.016 57.937 351.099 56.535ZM332.092 73.627C313.302 77.437 298.699 92.041 294.888 110.831L292.162 124.266L289.439 110.831C285.629 92.041 271.025 77.438 252.235 73.627L238.8 70.901L252.235 68.178C271.025 64.368 285.628 49.764 289.439 30.974L292.164 17.539L294.888 30.974C298.698 49.764 313.302 64.367 332.092 68.178L345.527 70.903L332.092 73.627Z" fill="#EAE8B2"/>
<path d="M219.29 105.046L199.926 101.12C183.798 97.8499 171.264 85.3169 167.995 69.1889L164.069 49.8249C162.524 42.2049 156.015 36.8829 148.241 36.8829C140.466 36.8829 133.957 42.2049 132.412 49.8249L128.486 69.1889C125.216 85.3169 112.683 97.8509 96.555 101.12L77.19 105.046C69.57 106.591 64.248 113.101 64.248 120.875C64.248 128.649 69.569 135.159 77.19 136.704L96.555 140.63C112.683 143.9 125.217 156.434 128.486 172.562L132.412 191.926C133.957 199.546 140.466 204.868 148.241 204.868C156.015 204.868 162.524 199.547 164.069 191.926L167.995 172.562C171.265 156.434 183.798 143.9 199.926 140.63L219.29 136.704C226.91 135.159 232.232 128.65 232.232 120.875C232.232 113.1 226.91 106.591 219.29 105.046ZM216.273 121.819L196.909 125.745C174.786 130.231 157.594 147.423 153.109 169.545L149.183 188.909C149.11 189.27 149.027 189.68 148.24 189.68C147.453 189.68 147.37 189.271 147.296 188.909L143.37 169.545C138.885 147.423 121.693 130.231 99.57 125.745L80.205 121.819C79.844 121.746 79.434 121.663 79.434 120.875C79.434 120.087 79.843 120.005 80.205 119.931L99.57 116.005C121.692 111.519 138.885 94.3279 143.37 72.2049L147.296 52.8409C147.369 52.4789 147.452 52.0689 148.24 52.0689C149.027 52.0689 149.11 52.4789 149.183 52.8409L153.109 72.2049C157.595 94.3269 174.786 111.519 196.909 116.004L216.273 119.93C216.635 120.003 217.045 120.086 217.045 120.874C217.045 121.662 216.634 121.745 216.273 121.819Z" fill="#EAE8B2"/>
</g>
<defs>
<clipPath id="clip0_318_3392">
<rect width="512" height="512" fill="white"/>
</clipPath>
</defs>
</svg>
