<?xml version="1.0" encoding="utf-8"?>
<!-- Generator: Adobe Illustrator 23.0.3, SVG Export Plug-In . SVG Version: 6.00 Build 0)  -->
<svg version="1.1" id="Layer_1" xmlns="http://www.w3.org/2000/svg" xmlns:xlink="http://www.w3.org/1999/xlink" x="0px" y="0px"
	 viewBox="0 0 2000 2000" style="enable-background:new 0 0 2000 2000;" xml:space="preserve">
<style type="text/css">
	.st0{fill:#222224;}
	.st1{fill:none;stroke:#B38A38;stroke-width:2;stroke-miterlimit:10;}
	.st2{fill:#B38A38;}
	.st3{fill:#F6F6F6;}
</style>
<rect class="st0" width="2000" height="2000"/>
<line class="st1" x1="2122.06" y1="2795.2" x2="2122.06" y2="2787.2"/>
<line class="st1" x1="2122.06" y1="2875.2" x2="2122.06" y2="2883.2"/>
<line class="st1" x1="2093.77" y1="2863.49" x2="2088.12" y2="2869.14"/>
<line class="st1" x1="2082.06" y1="2835.2" x2="2074.06" y2="2835.2"/>
<line class="st1" x1="2093.77" y1="2806.92" x2="2088.12" y2="2801.26"/>
<path class="st1" d="M2134.7,2859.87c-3.79,1.95-8.09,3.05-12.65,3.05c-15.31,0-27.72-12.41-27.72-27.72s12.41-27.72,27.72-27.72
	c4.56,0,8.86,1.1,12.65,3.05c-8.96,4.58-15.09,13.91-15.09,24.67S2125.74,2855.29,2134.7,2859.87z"/>
<g>
	<polygon class="st2" points="2135.45,2831.27 2132.6,2832.35 2131.52,2835.2 2130.44,2832.35 2127.59,2831.27 2130.44,2830.19 
		2131.52,2827.34 2132.6,2830.19 	"/>
</g>
<g>
	<polygon class="st2" points="2137.86,2821.24 2136.53,2821.74 2136.02,2823.07 2135.52,2821.74 2134.19,2821.24 2135.52,2820.73 
		2136.02,2819.4 2136.53,2820.73 	"/>
</g>
<g>
	<polygon class="st2" points="2140.28,2846.72 2138.53,2847.38 2137.87,2849.13 2137.2,2847.38 2135.45,2846.72 2137.2,2846.05 
		2137.87,2844.3 2138.53,2846.05 	"/>
</g>
<circle class="st2" cx="2128.16" cy="2842.64" r="1.31"/>
<circle class="st2" cx="2139.82" cy="2837.12" r="0.86"/>
<g>
	<g>
		<g>
			<path class="st3" d="M693.43,1002.18V865.95c0-16.27,1.26-32.35,3.78-48.18c0.36-2.28-1.2-4.43-3.48-4.79
				c-2.28-0.36-4.43,1.2-4.79,3.48c-2.58,16.26-3.88,32.79-3.88,49.49v136.23c0,2.31,1.87,4.19,4.19,4.19
				S693.43,1004.49,693.43,1002.18L693.43,1002.18z"/>
			<path class="st3" d="M1300.6,824.27c1.88,13.75,2.83,27.66,2.83,41.68v134.96c0,2.31,1.87,4.19,4.19,4.19s4.19-1.87,4.19-4.19
				l0-134.96c0-14.39-0.97-28.69-2.91-42.82c-0.31-2.29-2.43-3.89-4.72-3.58C1301.89,819.87,1300.28,821.98,1300.6,824.27
				L1300.6,824.27z"/>
			<path class="st3" d="M704.92,785.87l17.54,5.56c0.78,0.25,1.44,0.25,1.99,0.01c0.55-0.24,1.08-0.78,1.61-1.61l1.25,0.4
				l-5.26,16.61l-1.25-0.4c0.04-1.02-0.1-1.77-0.4-2.27s-0.84-0.87-1.62-1.11l-45.06-14.28c-0.81-0.26-1.47-0.27-2.01-0.04
				c-0.53,0.23-1.08,0.77-1.63,1.63l-1.25-0.4l10.53-33.21c1.23-3.87,2.46-6.86,3.7-8.97c1.24-2.11,2.77-3.83,4.6-5.17
				c1.89-1.37,4.08-2.22,6.56-2.55c2.56-0.31,5.08-0.06,7.58,0.73c3.59,1.14,6.43,3.09,8.52,5.87c1.79,2.4,2.73,5.12,2.84,8.17
				c0.1,3.05-0.62,7.03-2.18,11.94L704.92,785.87z M696.16,783.09l5.62-17.74c1.12-3.53,1.53-6.13,1.23-7.8
				c-0.2-1.07-0.76-2.05-1.66-2.95c-0.9-0.9-2-1.56-3.3-1.97c-1.27-0.4-2.54-0.5-3.79-0.28c-1.26,0.22-2.27,0.7-3.06,1.45
				c-1.2,1.16-2.36,3.53-3.49,7.09l-5.62,17.74L696.16,783.09z"/>
			<path class="st3" d="M724.62,667.65c5.72-7.88,12.39-12.58,20-14.1c8-1.64,15.53,0.1,22.58,5.23c4.32,3.14,7.51,7.24,9.56,12.3
				c4,9.89,2.22,20.04-5.34,30.46c-5.67,7.81-12.31,12.48-19.92,14c-4.07,0.82-8.15,0.72-12.26-0.31
				c-3.62-0.91-6.97-2.49-10.06-4.73c-4.52-3.28-7.81-7.44-9.88-12.49C715.34,688.37,717.12,678.25,724.62,667.65z M732.31,673.19
				c-3.13,4.31-4.46,8.82-3.99,13.55c0.55,5.59,3.27,10.17,8.16,13.72c4.89,3.55,10.08,4.73,15.57,3.52
				c4.64-1.01,8.54-3.7,11.7-8.04c3.16-4.35,4.5-8.88,4.01-13.58c-0.29-2.81-1.2-5.46-2.75-7.97c-1.38-2.22-3.12-4.09-5.21-5.61
				c-5.11-3.71-10.37-4.93-15.77-3.66C739.43,666.18,735.52,668.87,732.31,673.19z"/>
			<path class="st3" d="M813.02,648.74l-29.92-36.6c-0.52-0.63-1.06-1-1.63-1.09c-0.57-0.1-1.32,0.06-2.26,0.47l-0.83-1.01
				l13.49-11.02l0.83,1.01c-0.61,0.81-0.91,1.51-0.92,2.1c-0.01,0.59,0.24,1.2,0.76,1.83l29.92,36.6c0.53,0.65,1.1,1.03,1.69,1.13
				c0.59,0.1,1.33-0.06,2.23-0.47l0.83,1.01l-13.49,11.02l-0.83-1.01c0.59-0.83,0.89-1.54,0.91-2.12
				C813.81,650.01,813.55,649.39,813.02,648.74z"/>
			<path class="st3" d="M850.72,582.05l14,30.92c0.35,0.77,0.79,1.28,1.32,1.52c0.53,0.24,1.29,0.28,2.3,0.13l0.54,1.19l-14.94,6.77
				l-0.54-1.19c0.78-0.65,1.26-1.26,1.42-1.81c0.17-0.56,0.08-1.22-0.27-1.99l-19.5-43.06c-0.34-0.74-0.77-1.24-1.3-1.48
				c-0.53-0.24-1.29-0.28-2.3-0.13l-0.54-1.19l17.28-7.83l0.54,1.19c-0.94,0.76-1.22,1.57-0.83,2.44c0.27,0.59,0.92,1.1,1.94,1.5
				l41.26,16.46l-13.66-30.17c-0.34-0.74-0.77-1.24-1.3-1.48c-0.53-0.24-1.29-0.28-2.3-0.13l-0.54-1.19l14.94-6.76l0.54,1.19
				c-0.78,0.65-1.26,1.26-1.42,1.81c-0.17,0.56-0.08,1.2,0.25,1.95l19.5,43.06c0.35,0.77,0.79,1.28,1.31,1.52
				c0.53,0.24,1.29,0.28,2.3,0.13l0.54,1.19l-16.02,7.25l-0.54-1.19c0.94-0.7,1.22-1.47,0.84-2.31c-0.22-0.5-1.23-1.09-3.01-1.78
				L850.72,582.05z"/>
			<path class="st3" d="M967.14,539.48l4.77,42.05c0.1,0.84,0.36,1.46,0.79,1.85c0.43,0.39,1.15,0.67,2.15,0.83l0.15,1.3
				l-17.31,1.97l-0.15-1.3c0.94-0.38,1.58-0.81,1.91-1.29c0.33-0.48,0.45-1.13,0.35-1.98l-4.77-42.05l-17.23,1.95
				c-0.81,0.09-1.41,0.35-1.81,0.77c-0.39,0.42-0.67,1.14-0.82,2.16l-1.3,0.15l-1.63-14.34l1.3-0.15c0.41,0.95,0.85,1.59,1.31,1.92
				c0.46,0.32,1.1,0.44,1.91,0.35l46.52-5.28c0.84-0.09,1.46-0.35,1.85-0.77c0.39-0.42,0.67-1.14,0.82-2.16l1.3-0.15l1.63,14.34
				l-1.3,0.15c-0.38-0.96-0.81-1.6-1.29-1.92c-0.48-0.32-1.13-0.44-1.97-0.34L967.14,539.48z"/>
			<path class="st3" d="M1060.83,567.63l-3.51,18.74c-0.16,0.83-0.08,1.5,0.22,2c0.3,0.5,0.9,0.98,1.8,1.42l-0.24,1.29l-17.2-3.22
				l0.24-1.29c1.01-0.09,1.76-0.31,2.24-0.66c0.48-0.35,0.8-0.95,0.96-1.78l3.51-18.75l-13.05-28.26c-1.13-2.43-2.06-4.09-2.79-4.99
				c-0.73-0.9-1.69-1.54-2.86-1.93l0.24-1.29l21.66,4.06l-0.24,1.29c-1.85-0.04-2.9,0.62-3.16,1.98c-0.09,0.48,0.26,1.64,1.05,3.48
				l7.14,16.53l12.92-12.77c1.39-1.37,2.14-2.34,2.25-2.91c0.11-0.61-0.03-1.19-0.43-1.72c-0.4-0.53-1-0.94-1.81-1.23l0.24-1.29
				l21.22,3.97l-0.24,1.29c-1.24-0.07-2.36,0.19-3.37,0.76c-1.01,0.57-2.48,1.79-4.41,3.64L1060.83,567.63z"/>
			<path class="st3" d="M1198.85,634.74l-25.39-19.78l-12.36,15.87c-0.5,0.65-0.74,1.26-0.7,1.86c0.03,0.6,0.35,1.29,0.96,2.07
				l-0.8,1.03l-13.74-10.7l0.8-1.03c0.94,0.39,1.7,0.53,2.27,0.42c0.57-0.11,1.1-0.49,1.61-1.13l29.07-37.32
				c0.5-0.65,0.74-1.26,0.7-1.84c-0.03-0.58-0.35-1.28-0.96-2.09l0.8-1.03l13.74,10.71l-0.8,1.03c-0.92-0.41-1.68-0.56-2.25-0.43
				c-0.58,0.12-1.12,0.5-1.62,1.15l-11.06,14.19l25.39,19.78l11.06-14.19c0.5-0.64,0.74-1.26,0.72-1.85
				c-0.02-0.59-0.35-1.28-0.97-2.08l0.8-1.03l13.74,10.71l-0.8,1.03c-0.94-0.39-1.7-0.53-2.27-0.42c-0.57,0.11-1.11,0.49-1.61,1.13
				l-29.07,37.32c-0.5,0.65-0.74,1.26-0.7,1.84c0.03,0.58,0.35,1.28,0.96,2.09l-0.8,1.03l-13.74-10.71l0.8-1.03
				c0.9,0.39,1.65,0.53,2.24,0.42c0.59-0.11,1.13-0.49,1.64-1.14L1198.85,634.74z"/>
			<path class="st3" d="M1251.91,713.54l-13.96-21.18l-8.62,1.18c-1.2,0.17-2.05,0.43-2.58,0.77c-1,0.66-1.2,1.88-0.58,3.66
				l-1.09,0.72l-10.16-15.42l1.09-0.72c0.78,0.79,1.56,1.28,2.33,1.45c0.77,0.18,2.02,0.14,3.74-0.11l47.11-6.46
				c1.5-0.2,2.59-0.53,3.27-0.98c1.05-0.69,1.36-1.85,0.95-3.46l1.09-0.72l10.89,16.53l-1.09,0.72c-1.27-1.09-2.39-1.32-3.34-0.69
				c-0.66,0.44-1.27,1.15-1.83,2.13l-24.22,41.43c-1.03,1.76-1.64,3.1-1.82,4.04c-0.18,0.94-0.05,1.94,0.4,3.02l-1.09,0.72
				l-11.31-17.16l1.09-0.72c1.24,1.34,2.45,1.63,3.61,0.87c0.48-0.32,1.03-1.01,1.67-2.08L1251.91,713.54z M1256.37,706.41
				l11.62-18.5l-21.66,3.26L1256.37,706.41z"/>
			<path class="st3" d="M1313.49,774.8l-40.43,12.51c-0.81,0.25-1.36,0.62-1.67,1.11s-0.44,1.25-0.41,2.27l-1.25,0.39l-5.15-16.64
				l1.25-0.39c0.55,0.86,1.09,1.4,1.62,1.64c0.53,0.24,1.2,0.23,2.01-0.02l40.43-12.51l-5.12-16.56c-0.24-0.78-0.61-1.32-1.09-1.63
				c-0.49-0.31-1.25-0.44-2.28-0.41l-0.39-1.25l13.79-4.27l0.39,1.25c-0.86,0.58-1.41,1.13-1.64,1.64
				c-0.23,0.52-0.23,1.16,0.01,1.94l13.84,44.73c0.25,0.81,0.62,1.36,1.11,1.67c0.49,0.31,1.25,0.44,2.27,0.41l0.39,1.25
				l-13.79,4.27l-0.39-1.25c0.87-0.56,1.42-1.1,1.65-1.62c0.23-0.53,0.22-1.2-0.03-2L1313.49,774.8z"/>
		</g>
		<g>
			<path class="st3" d="M699.34,1051.42c-1.98,2.37-4.72,3.56-8.23,3.56c-3.48,0-6.21-1.19-8.19-3.56
				c-1.98-2.37-2.97-5.65-2.97-9.82v-9.49h-10.87v-2.42h33.22v11.91C702.3,1045.77,701.31,1049.05,699.34,1051.42z M684.46,1049.71
				c1.55,1.87,3.76,2.8,6.64,2.8c2.88,0,5.1-0.93,6.67-2.8c1.57-1.87,2.35-4.57,2.35-8.12v-9.49h-17.99v9.49
				C682.13,1045.14,682.91,1047.84,684.46,1049.71z"/>
			<path class="st3" d="M669.08,1093.36l11.1-7.92c-0.16-1.17-0.24-2.25-0.24-3.23v-9.49h-10.87v-2.42h33.22v11.91
				c0,4.18-0.99,7.45-2.97,9.82c-1.98,2.37-4.72,3.56-8.23,3.56c-2.63,0-4.83-0.67-6.62-2.02c-1.79-1.35-3.05-3.27-3.77-5.77
				l-11.63,8.3V1093.36z M682.09,1082.21c0,3.54,0.78,6.25,2.35,8.12c1.57,1.87,3.79,2.8,6.67,2.8c2.88,0,5.1-0.93,6.67-2.8
				c1.57-1.87,2.35-4.57,2.35-8.12v-9.49h-18.03V1082.21z"/>
			<path class="st3" d="M678.43,1132.11v-19.27l-9.35-4.22v-2.61l33.22,15.28v2.42l-33.22,15.28v-2.61L678.43,1132.11z
				 M680.47,1131.21l19.17-8.73l-19.17-8.68V1131.21z"/>
			<path class="st3" d="M686.81,1175.45l0.14,2.32l-12.41,0.75c-1.48-1.37-2.64-3.07-3.49-5.09c-0.85-2.02-1.35-4.19-1.49-6.49
				c-0.2-3.28,0.35-6.29,1.64-9.01c1.29-2.72,3.17-4.92,5.64-6.57c2.47-1.65,5.3-2.58,8.48-2.77c3.19-0.19,6.11,0.38,8.76,1.73
				c2.65,1.35,4.78,3.29,6.39,5.84c1.61,2.55,2.52,5.48,2.72,8.8c0.15,2.43-0.1,4.69-0.76,6.77c-0.65,2.08-1.67,3.9-3.07,5.44
				l-1.7-1.42c1.31-1.47,2.21-3.09,2.73-4.85c0.51-1.76,0.71-3.68,0.58-5.76c-0.17-2.84-0.96-5.37-2.36-7.58
				c-1.4-2.21-3.25-3.9-5.56-5.06c-2.3-1.16-4.83-1.66-7.58-1.49c-2.72,0.16-5.15,0.97-7.29,2.41c-2.15,1.44-3.79,3.34-4.93,5.69
				s-1.63,4.95-1.45,7.79c0.23,3.79,1.43,6.87,3.6,9.24L686.81,1175.45z"/>
			<polygon class="st3" points="679.84,1230.14 707.59,1224 681.15,1215.57 680.9,1214.41 701.28,1195.7 673.61,1201.77 
				673.1,1199.46 705.54,1192.33 705.98,1194.32 684.09,1214.34 712.35,1223.34 712.78,1225.29 680.35,1232.46 			"/>
			<path class="st3" d="M703.11,1268.94l-6.92-17.98l-10.24-0.58l-0.94-2.44l36.49,2.33l0.87,2.26l-25.52,26.19l-0.94-2.44
				L703.11,1268.94z M704.7,1267.36l14.76-15.03l-21.01-1.22L704.7,1267.36z"/>
			<polygon class="st3" points="733.46,1282.32 727.92,1271.73 729.85,1270.71 742.06,1294.05 740.13,1295.06 734.58,1284.47 
				707.09,1298.86 705.96,1296.71 			"/>
			
				<rect x="718.58" y="1312.83" transform="matrix(0.841 -0.541 0.541 0.841 -594.0063 606.6146)" class="st3" width="33.22" height="2.42"/>
			<path class="st3" d="M738.32,1344.08c-0.49-2.95-0.19-5.81,0.88-8.58c1.07-2.77,2.86-5.15,5.36-7.14
				c2.5-1.99,5.22-3.19,8.16-3.61c2.94-0.42,5.79-0.06,8.56,1.08c2.76,1.14,5.16,2.98,7.18,5.54c1.5,1.88,2.57,3.86,3.22,5.93
				c0.65,2.07,0.83,4.13,0.52,6.19l-2.17-0.22c0.4-3.71-0.68-7.19-3.26-10.44c-1.73-2.18-3.8-3.77-6.21-4.76
				c-2.41-1-4.89-1.31-7.44-0.94c-2.55,0.37-4.91,1.41-7.06,3.13c-2.15,1.71-3.7,3.77-4.64,6.17c-0.94,2.4-1.2,4.89-0.77,7.46
				c0.43,2.57,1.5,4.95,3.24,7.13c2.56,3.22,5.71,5.06,9.47,5.51l-0.28,2.16c-2.07-0.17-4.06-0.81-5.95-1.91
				c-1.89-1.11-3.57-2.59-5.05-4.44C740.06,1349.78,738.8,1347.03,738.32,1344.08z"/>
			<polygon class="st3" points="801.65,1369.33 792.63,1361.47 794.07,1359.83 813.92,1377.13 812.49,1378.78 803.47,1370.92 
				783.08,1394.32 781.25,1392.73 			"/>
			<path class="st3" d="M825.25,1414.43l-15.87-10.92l-8.78,5.3l-2.15-1.48l31.42-18.7l1.99,1.37l-6.25,36.03l-2.15-1.48
				L825.25,1414.43z M825.67,1412.24l3.68-20.74l-18.02,10.87L825.67,1412.24z"/>
			<path class="st3" d="M859.87,1444.23l-2.03-13.49c-1.12-0.39-2.11-0.81-2.99-1.25l-8.46-4.3l-4.92,9.69l-2.16-1.1l15.05-29.61
				l10.62,5.4c3.72,1.89,6.19,4.26,7.41,7.09c1.22,2.84,1.03,5.82-0.56,8.95c-1.19,2.34-2.79,4-4.8,4.99
				c-2.01,0.98-4.29,1.23-6.85,0.75l2.14,14.13L859.87,1444.23z M855.81,1427.58c3.16,1.61,5.93,2.13,8.3,1.58
				c2.37-0.55,4.21-2.11,5.52-4.68c1.3-2.57,1.48-4.97,0.52-7.21c-0.96-2.24-3.01-4.17-6.17-5.77l-8.46-4.3l-8.17,16.08
				L855.81,1427.58z"/>
			<path class="st3" d="M884.89,1452.41c-2.01-2.24-3.32-4.81-3.92-7.72c-0.6-2.91-0.39-5.86,0.62-8.86c1.02-3,2.65-5.47,4.89-7.41
				c2.25-1.94,4.85-3.19,7.81-3.74c2.96-0.55,5.98-0.3,9.07,0.75c3.08,1.05,5.64,2.68,7.66,4.9c2.02,2.22,3.33,4.79,3.93,7.7
				c0.6,2.91,0.39,5.88-0.64,8.9c-1.03,3.03-2.66,5.51-4.91,7.45c-2.25,1.94-4.85,3.18-7.8,3.72c-2.96,0.54-5.97,0.28-9.06-0.77
				C889.46,1456.29,886.91,1454.65,884.89,1452.41z M901.01,1455.85c2.53-0.48,4.77-1.56,6.72-3.26c1.94-1.7,3.36-3.85,4.24-6.45
				c0.88-2.61,1.07-5.17,0.56-7.7c-0.51-2.53-1.63-4.75-3.35-6.67c-1.72-1.92-3.9-3.33-6.54-4.22c-2.64-0.89-5.23-1.1-7.78-0.63
				c-2.55,0.47-4.8,1.56-6.74,3.25c-1.95,1.7-3.36,3.85-4.24,6.45c-0.88,2.61-1.07,5.17-0.56,7.7c0.51,2.53,1.64,4.76,3.37,6.68
				c1.74,1.92,3.92,3.34,6.56,4.23C895.89,1456.12,898.48,1456.32,901.01,1455.85z"/>
			<polygon class="st3" points="938.47,1437.42 926.75,1435.08 927.17,1432.94 953,1438.1 952.57,1440.24 940.85,1437.9 
				934.77,1468.33 932.39,1467.86 			"/>
			<path class="st3" d="M1003.05,1465.25l-19.27-0.29l-4.36,9.28l-2.61-0.04l15.78-32.99l2.42,0.04l14.78,33.44l-2.61-0.04
				L1003.05,1465.25z M1002.18,1463.19l-8.44-19.3l-8.97,19.04L1002.18,1463.19z"/>
			<polygon class="st3" points="1048.45,1437.37 1052.52,1470.33 1050.55,1470.58 1024.54,1444.72 1028.08,1473.35 1025.68,1473.65 
				1021.61,1440.68 1023.63,1440.43 1049.59,1466.3 1046.05,1437.66 			"/>
			<path class="st3" d="M1064.87,1434.09l12.66-3.52c3.32-0.92,6.46-1.06,9.42-0.4c2.96,0.66,5.49,2,7.6,4.02
				c2.11,2.03,3.59,4.58,4.44,7.65c0.86,3.08,0.91,6.03,0.15,8.85c-0.76,2.82-2.24,5.28-4.43,7.36s-4.95,3.59-8.27,4.52l-12.67,3.52
				L1064.87,1434.09z M1085.67,1460.52c2.96-0.82,5.4-2.13,7.33-3.94c1.93-1.8,3.21-3.92,3.85-6.36c0.63-2.44,0.57-5.02-0.18-7.73
				c-0.75-2.71-2.03-4.95-3.84-6.72c-1.8-1.76-4-2.92-6.58-3.46c-2.58-0.55-5.35-0.41-8.31,0.41l-10.15,2.82l7.73,27.8
				L1085.67,1460.52z"/>
			<path class="st3" d="M1144.83,1406.21c3.02,0.67,5.33,2.57,6.94,5.69c1.59,3.09,1.79,6.06,0.59,8.91
				c-1.2,2.84-3.66,5.22-7.37,7.14l-8.43,4.35l4.98,9.66l-2.15,1.11l-15.23-29.52l10.59-5.46
				C1138.45,1406.17,1141.81,1405.54,1144.83,1406.21z M1150.13,1420.22c0.95-2.23,0.76-4.63-0.56-7.19
				c-1.32-2.56-3.17-4.11-5.55-4.64c-2.38-0.54-5.14,0.01-8.29,1.63l-8.43,4.35l8.24,15.98l8.44-4.35
				C1147.13,1424.38,1149.18,1422.45,1150.13,1420.22z"/>
			<polygon class="st3" points="1158.18,1394.66 1160.18,1393.3 1177.65,1418.95 1193.46,1408.18 1194.69,1409.98 1176.88,1422.11 
							"/>
			<path class="st3" d="M1216.4,1379.61l-14.51,12.68l2.97,9.82l-1.97,1.72l-10.36-35.07l1.82-1.59l33.37,14.96l-1.96,1.72
				L1216.4,1379.61z M1214.38,1378.67l-19.19-8.69l6.08,20.15L1214.38,1378.67z"/>
			<polygon class="st3" points="1235.47,1356.97 1243.97,1364.62 1242.35,1366.42 1233.85,1358.77 1208.71,1354.15 1210.49,1352.18 
				1233.05,1356.33 1226.54,1334.33 1228.23,1332.46 			"/>
			
				<rect x="1247.65" y="1315.85" transform="matrix(0.6007 -0.7995 0.7995 0.6007 -566.6049 1530.4393)" class="st3" width="2.42" height="33.22"/>
			<polygon class="st3" points="1260.22,1284.31 1288.81,1301.24 1287.79,1302.95 1251.43,1307.73 1276.25,1322.43 1275.02,1324.51 
				1246.44,1307.59 1247.48,1305.83 1283.82,1301.1 1258.99,1286.39 			"/>
			<path class="st3" d="M1292.18,1253.65l0.89-2.15l11.5,4.73c0.73,1.88,1.04,3.91,0.93,6.1c-0.12,2.19-0.61,4.36-1.49,6.49
				c-1.25,3.04-3.05,5.51-5.41,7.4c-2.35,1.89-5,3.04-7.94,3.46c-2.94,0.41-5.89,0.01-8.84-1.2s-5.33-3.01-7.13-5.37
				c-1.8-2.36-2.87-5.05-3.21-8.04c-0.34-3,0.12-6.03,1.39-9.1c0.93-2.25,2.14-4.17,3.63-5.77s3.2-2.78,5.13-3.56l0.91,2.02
				c-1.82,0.76-3.34,1.82-4.57,3.17c-1.23,1.36-2.24,3.01-3.03,4.94c-1.08,2.63-1.48,5.25-1.18,7.85c0.3,2.6,1.23,4.93,2.8,6.98
				c1.57,2.05,3.63,3.6,6.17,4.64c2.52,1.04,5.06,1.37,7.62,1.01c2.56-0.37,4.87-1.36,6.92-2.98c2.05-1.62,3.62-3.74,4.7-6.38
				c1.44-3.51,1.71-6.81,0.79-9.89L1292.18,1253.65z"/>
			<path class="st3" d="M1318.87,1212.86c-1.92,2.29-4.28,3.93-7.08,4.93c-2.8,0.99-5.77,1.19-8.91,0.59
				c-3.14-0.6-5.82-1.88-8.06-3.84c-2.23-1.96-3.82-4.35-4.76-7.19c-0.94-2.84-1.1-5.86-0.49-9.06c0.45-2.36,1.25-4.46,2.39-6.31
				c1.14-1.84,2.59-3.32,4.35-4.43l1.25,1.79c-3.08,2.12-5.01,5.21-5.79,9.28c-0.52,2.73-0.38,5.34,0.44,7.81
				c0.82,2.48,2.19,4.56,4.14,6.25c1.95,1.69,4.27,2.8,6.97,3.32s5.27,0.35,7.71-0.51s4.49-2.28,6.16-4.28
				c1.67-2,2.77-4.37,3.29-7.1c0.77-4.04,0.11-7.63-2-10.77l1.82-1.2c1.22,1.68,2.03,3.6,2.42,5.75c0.39,2.15,0.37,4.4-0.08,6.73
				C1322.06,1207.83,1320.79,1210.57,1318.87,1212.86z"/>
			<path class="st3" d="M1318.42,1155.07l-1.16,19.23l9.08,4.78l-0.16,2.6l-32.24-17.25l0.15-2.42l34.08-13.25l-0.16,2.61
				L1318.42,1155.07z M1316.32,1155.85l-19.66,7.56l18.61,9.82L1316.32,1155.85z"/>
			<path class="st3" d="M1327.78,1111.59l-11.1,7.92c0.16,1.17,0.24,2.25,0.24,3.23v9.49h10.87v2.42h-33.22v-11.91
				c0-4.18,0.99-7.45,2.97-9.82c1.98-2.37,4.72-3.56,8.23-3.56c2.63,0,4.83,0.67,6.62,2.02c1.79,1.35,3.05,3.27,3.77,5.77l11.63-8.3
				V1111.59z M1314.78,1122.74c0-3.54-0.78-6.25-2.35-8.12c-1.57-1.87-3.79-2.8-6.67-2.8c-2.88,0-5.1,0.93-6.67,2.8
				c-1.57,1.87-2.35,4.57-2.35,8.12v9.49h18.03V1122.74z"/>
			<path class="st3" d="M1294.56,1093.32v-13.15c0-3.45,0.71-6.51,2.14-9.18c1.42-2.67,3.39-4.75,5.91-6.24s5.37-2.23,8.57-2.23
				c3.2,0,6.05,0.74,8.57,2.23c2.51,1.49,4.48,3.57,5.91,6.24c1.42,2.67,2.14,5.73,2.14,9.18v13.15H1294.56z M1325.6,1080.37
				c0-3.07-0.61-5.77-1.83-8.12c-1.22-2.34-2.92-4.14-5.1-5.41c-2.18-1.26-4.68-1.9-7.5-1.9c-2.81,0-5.31,0.63-7.5,1.9
				c-2.18,1.27-3.88,3.07-5.1,5.41c-1.22,2.34-1.83,5.05-1.83,8.12v10.53h28.85V1080.37z"/>
			<path class="st3" d="M1326.76,1045.2c-0.84,2.2-1.92,3.91-3.25,5.15l-1.8-1.09c1.23-1.17,2.24-2.75,3.01-4.72
				c0.78-1.98,1.16-4.06,1.16-6.24c0-3.16-0.6-5.55-1.8-7.17c-1.2-1.61-2.77-2.42-4.7-2.42c-1.49,0-2.67,0.43-3.56,1.28
				c-0.88,0.85-1.57,1.92-2.04,3.18c-0.47,1.27-0.96,2.97-1.47,5.13c-0.6,2.44-1.19,4.39-1.76,5.86c-0.57,1.47-1.45,2.72-2.63,3.75
				c-1.19,1.03-2.78,1.54-4.77,1.54c-1.61,0-3.09-0.43-4.44-1.28c-1.34-0.85-2.41-2.16-3.2-3.91c-0.79-1.76-1.19-3.95-1.19-6.57
				c0-1.83,0.27-3.64,0.81-5.41c0.54-1.77,1.26-3.31,2.18-4.6l1.95,0.9c-0.92,1.33-1.61,2.79-2.09,4.39
				c-0.47,1.6-0.71,3.17-0.71,4.72c0,3.07,0.62,5.39,1.85,6.97c1.23,1.58,2.83,2.37,4.79,2.37c1.49,0,2.67-0.43,3.56-1.28
				c0.89-0.85,1.57-1.91,2.04-3.18c0.47-1.27,0.98-2.99,1.52-5.17c0.6-2.44,1.19-4.38,1.76-5.84c0.57-1.45,1.43-2.7,2.59-3.73
				c1.15-1.03,2.71-1.54,4.67-1.54c1.61,0,3.08,0.43,4.41,1.3c1.33,0.87,2.39,2.21,3.18,4.01c0.79,1.8,1.19,4.02,1.19,6.64
				C1328.02,1040.69,1327.6,1043,1326.76,1045.2z"/>
		</g>
	</g>
	<g>
		<path class="st3" d="M1024.47,1188.26l-1.28-4.08c-4.6,1.45-9.5,2.2-14.61,2.2c-13.77,0-26.19-5.56-35.21-14.57
			c-9.02-9.02-14.58-21.43-14.58-35.19c0-13.75,5.57-26.16,14.58-35.18c9.02-9.01,21.44-14.58,35.21-14.58
			c5.11,0,10.01,0.76,14.61,2.2l1.28-4.08l-1.25-4.09c-23.85,7.3-41.15,29.49-41.16,55.72c0.01,26.25,17.32,48.42,41.16,55.72
			L1024.47,1188.26l-1.28-4.08L1024.47,1188.26l1.25-4.09c-20.33-6.23-35.12-25.13-35.12-47.54c-0.01-22.38,14.79-41.32,35.12-47.54
			c1.79-0.55,3.02-2.2,3.02-4.07c0.01-1.87-1.21-3.53-2.99-4.09c-5.45-1.71-11.22-2.6-17.18-2.6c-32.22,0-58.33,26.11-58.34,58.31
			c0,32.22,26.12,58.3,58.34,58.3c5.95,0,11.73-0.88,17.18-2.6c1.79-0.56,3-2.22,2.99-4.09c-0.01-1.87-1.23-3.52-3.02-4.07
			L1024.47,1188.26z"/>
		<path class="st3" d="M998.17,957.27v125.33c0,2.36,1.91,4.27,4.27,4.27c2.36,0,4.27-1.91,4.27-4.27V957.27
			c0-2.36-1.91-4.27-4.27-4.27C1000.09,952.99,998.17,954.9,998.17,957.27"/>
		<path class="st3" d="M967.81,1176.77v42.13c0,2.36,1.91,4.27,4.27,4.27c2.36,0,4.27-1.91,4.27-4.27v-42.13
			c0-2.36-1.91-4.27-4.27-4.27C969.73,1172.49,967.81,1174.41,967.81,1176.77"/>
		<path class="st3" d="M1002.55,1246.02v-56.61c0-2.36-1.91-4.27-4.27-4.27c-2.36,0-4.27,1.91-4.27,4.27v56.61
			c0,2.36,1.91,4.27,4.27,4.27C1000.64,1250.3,1002.55,1248.38,1002.55,1246.02"/>
		<path class="st3" d="M1020.2,1188.26v34.37c0,2.36,1.91,4.27,4.27,4.27c2.36,0,4.27-1.91,4.27-4.27v-34.37
			c0-2.36-1.91-4.27-4.27-4.27C1022.11,1183.98,1020.2,1185.9,1020.2,1188.26"/>
		<path class="st3" d="M979.75,1226.56c0,4.23-3.43,7.66-7.66,7.66s-7.66-3.43-7.66-7.66c0-4.23,3.43-7.66,7.66-7.66
			S979.75,1222.33,979.75,1226.56z"/>
		<path class="st3" d="M1005.94,1249.27c0,4.23-3.43,7.66-7.66,7.66c-4.23,0-7.66-3.43-7.66-7.66c0-4.23,3.43-7.66,7.66-7.66
			C1002.51,1241.6,1005.94,1245.03,1005.94,1249.27z"/>
		<circle class="st3" cx="972.09" cy="1264.59" r="5.4"/>
		<path class="st3" d="M1073.08,1210.85c0,5.64-4.57,10.21-10.21,10.21c-5.64,0-10.21-4.57-10.21-10.21
			c0-5.64,4.57-10.21,10.21-10.21C1068.51,1200.63,1073.08,1205.21,1073.08,1210.85z"/>
		<circle class="st3" cx="876.59" cy="1120.85" r="10.21"/>
		<path class="st3" d="M942.22,1071.84c-9.13,0-16.51,7.38-16.51,16.51c0-9.13-7.38-16.51-16.51-16.51
			c9.13,0,16.51-7.42,16.51-16.56C925.71,1064.41,933.09,1071.84,942.22,1071.84z"/>
		<path class="st3" d="M928.86,1184.13c-9.13,0-16.51,7.38-16.51,16.51c0-9.13-7.38-16.51-16.51-16.51
			c9.13,0,16.51-7.42,16.51-16.56C912.35,1176.7,919.73,1184.13,928.86,1184.13z"/>
		<path class="st3" d="M1132.43,1120.12c-9.13,0-16.51,7.38-16.51,16.51c0-9.13-7.38-16.51-16.51-16.51
			c9.13,0,16.51-7.42,16.51-16.56C1115.92,1112.69,1123.3,1120.12,1132.43,1120.12z"/>
		<path class="st3" d="M983.87,1006.49c0,5.64-4.57,10.21-10.21,10.21c-5.64,0-10.21-4.57-10.21-10.21
			c0-5.64,4.57-10.21,10.21-10.21C979.3,996.28,983.87,1000.85,983.87,1006.49z"/>
		<circle class="st3" cx="1069.55" cy="1032.03" r="10.21"/>
		<path class="st3" d="M1032.13,1227.84c0,4.23-3.43,7.66-7.66,7.66c-4.23,0-7.66-3.43-7.66-7.66c0-4.23,3.43-7.66,7.66-7.66
			C1028.7,1220.18,1032.13,1223.61,1032.13,1227.84z"/>
		<path class="st3" d="M1245.92,788.65l4.07-1.32c-11.04-34.04-28.88-65.03-51.9-91.39l0.01,0.02c-3.89-4.5-7.98-8.88-12.21-13.1
			c-21.63-21.63-47.03-39.5-75.13-52.54l0.01,0c-33.66-15.7-71.21-24.45-110.76-24.45c-37.64,0-73.48,7.93-105.89,22.22
			c-35.57,15.67-66.99,38.98-92.19,67.86c-19.46,22.27-35.22,47.87-46.28,75.8l0-0.01c-11.96,30.01-18.51,62.75-18.51,97v262.52
			c0,3.66,0.09,7.28,0.23,10.86c0.78,19.57,3.71,38.61,8.57,56.83l0-0.01c5.62,21.21,13.85,41.34,24.27,60.07
			c8.14,14.6,17.61,28.33,28.27,41.04l0,0c13.32,15.84,28.43,30.11,45.09,42.45c15.6,11.58,32.52,21.49,50.54,29.4l-0.01,0
			c17.24,7.62,35.46,13.41,54.43,17.18c16.65,3.3,33.86,5.04,51.46,5.04c22.03,0,43.47-2.72,63.92-7.85l-0.01,0
			c18.86-4.69,36.94-11.44,53.94-20.02l-0.01,0c16.71-8.37,32.42-18.48,46.84-30.16l-0.02,0.01c14.86-11.91,28.39-25.46,40.3-40.32
			l-0.01,0.01c11.91-14.75,22.19-30.8,30.62-47.89l-0.01,0.01c7.74-15.53,13.94-31.9,18.48-48.98c4.87-18.22,7.79-37.26,8.57-56.83
			c0.15-3.58,0.23-7.2,0.23-10.85V868.74c0-28.4-4.52-55.78-12.89-81.42l0,0.01L1245.92,788.65l-4.06,1.33
			c8.1,24.79,12.47,51.27,12.47,78.76v262.52c0,3.52-0.08,7.03-0.22,10.51c-0.76,18.95-3.59,37.35-8.29,54.97
			c-4.4,16.54-10.39,32.36-17.87,47.38l-0.01,0.02c-8.15,16.53-18.09,32.04-29.61,46.3l-0.01,0.01c-11.52,14.37-24.6,27.49-38.97,39
			l-0.02,0.01c-13.95,11.29-29.13,21.06-45.3,29.16l-0.01,0c-16.44,8.29-33.92,14.82-52.16,19.36l-0.01,0
			c-19.78,4.96-40.51,7.59-61.84,7.59c-17.04,0-33.69-1.68-49.8-4.88c-18.35-3.64-35.97-9.25-52.64-16.61l-0.01,0
			c-17.42-7.65-33.78-17.23-48.89-28.44c-16.11-11.94-30.74-25.75-43.64-41.09l0,0c-10.31-12.3-19.48-25.58-27.35-39.71
			c-10.09-18.13-18.04-37.6-23.48-58.1l0-0.01c-4.71-17.62-7.54-36.02-8.29-54.97c-0.14-3.49-0.22-6.99-0.22-10.51V868.74
			c0-33.16,6.33-64.81,17.9-93.83l0-0.01c10.7-27.01,25.94-51.78,44.77-73.33c24.38-27.94,54.79-50.5,89.19-65.66
			c31.35-13.81,66-21.49,102.44-21.49c38.29,0,74.59,8.46,107.14,23.65l0.01,0c27.18,12.61,51.75,29.9,72.68,50.83
			c4.09,4.09,8.04,8.32,11.78,12.65l0.01,0.02c22.28,25.5,39.54,55.48,50.21,88.4l0,0.01L1245.92,788.65z"/>
		<path class="st3" d="M1147.98,1036.04l-3.58,2.33c5.48,8.4,10.26,17.29,14.2,26.62c3.86,9.12,6.95,18.65,9.2,28.49l0-0.01
			c2.72,12.09,4.17,24.65,4.17,37.58c0,0.94,0,1.84-0.03,2.66l0,0.07c-0.19,12.82-1.81,25.26-4.72,37.2l0,0.02
			c-2.72,11.36-6.61,22.27-11.55,32.63l-0.01,0.02c-5.33,11.3-11.92,21.92-19.56,31.7c-7.56,9.67-16.15,18.51-25.6,26.32l-0.01,0.01
			c-9.5,7.89-19.89,14.75-31,20.39l-0.02,0.01c-11.31,5.81-23.36,10.36-35.98,13.5c-13.14,3.28-26.9,5-41.05,5
			c-0.83,0-1.6,0-2.3-0.03l-0.1,0c-10.98-0.14-21.67-1.33-32.04-3.47c-25.37-5.22-48.65-16.14-68.5-31.34l-0.01,0
			c-11.14-8.5-21.17-18.37-29.87-29.34l-0.01-0.01c-6.39-8.03-12.06-16.65-16.89-25.75l-0.01-0.01c-6.81-12.72-12-26.42-15.36-40.84
			c-2.83-12.18-4.39-24.85-4.45-37.85v0.02v-0.88c0-10.38,0.92-20.52,2.69-30.35c2.22-12.28,5.78-24.12,10.5-35.31l0-0.01
			c4.03-9.61,8.92-18.75,14.58-27.33l0.01-0.01c6.44-9.83,13.92-18.98,22.25-27.23l0.01-0.01c9.03-9,19.11-16.98,30.01-23.76
			l0.01-0.01c8.6-5.39,17.77-10,27.34-13.78l-0.01,0.01c9.45-3.7,19.29-6.59,29.47-8.59c9.8-1.92,19.91-2.97,30.26-3.11l0.09,0
			c0.7-0.02,1.48-0.03,2.3-0.03c12.37,0,24.46,1.33,36.07,3.86l0.01,0c10.17,2.19,19.98,5.31,29.37,9.23l-0.01,0
			c1.06,0.44,2.07,0.88,3.06,1.34l0.06,0.03c9.75,4.31,19,9.5,27.66,15.53l0.02,0.01c7.86,5.42,15.25,11.5,22.06,18.14l0.01,0.01
			c8.89,8.64,16.84,18.28,23.65,28.7L1147.98,1036.04l3.58-2.34c-7.15-10.95-15.5-21.08-24.85-30.16l0.01,0.01
			c-7.15-6.98-14.92-13.37-23.18-19.06l0.02,0.01c-9.12-6.34-18.84-11.8-29.09-16.33l-1.73,3.91l1.78-3.88
			c-1.11-0.51-2.21-0.98-3.32-1.45l-0.01,0c-9.86-4.12-20.17-7.39-30.86-9.69l0.01,0c-12.21-2.66-24.91-4.06-37.89-4.06
			c-0.83,0-1.7,0-2.6,0.03l0.15,4.27l-0.06-4.27c-10.85,0.15-21.48,1.25-31.79,3.27c-10.69,2.1-21.02,5.14-30.94,9.02l-0.01,0.01
			c-10.04,3.97-19.67,8.81-28.73,14.48l0.01-0.01c-11.44,7.12-22.04,15.5-31.53,24.96l0.01-0.01c-8.76,8.67-16.61,18.28-23.39,28.62
			l0.01-0.01c-5.96,9.02-11.1,18.63-15.33,28.74l0-0.01c-4.96,11.77-8.7,24.21-11.04,37.11c-1.87,10.34-2.83,20.99-2.83,31.87v0.88
			v0.02c0.06,13.66,1.69,26.97,4.67,39.75c3.53,15.15,8.99,29.55,16.15,42.93l-0.01-0.01c5.08,9.58,11.04,18.63,17.75,27.07
			l-0.01-0.01c9.14,11.53,19.68,21.9,31.39,30.83l-0.01,0c20.84,15.96,45.31,27.44,71.97,32.93c10.89,2.25,22.13,3.5,33.66,3.65
			l0.05-4.27l-0.16,4.27c0.91,0.03,1.78,0.03,2.61,0.03c14.85,0,29.3-1.81,43.12-5.26c13.25-3.3,25.93-8.09,37.81-14.19l-0.02,0.01
			c11.69-5.93,22.61-13.14,32.59-21.44l-0.01,0.01c9.93-8.2,18.95-17.49,26.89-27.64c8.03-10.27,14.95-21.43,20.56-33.32l-0.01,0.02
			c5.2-10.89,9.29-22.37,12.15-34.32l0,0.02c3.07-12.56,4.76-25.65,4.96-39.1l-4.27-0.06l4.27,0.14c0.03-1.01,0.03-1.99,0.03-2.93
			c0-13.57-1.52-26.76-4.38-39.46l0-0.01c-2.36-10.33-5.6-20.34-9.66-29.92c-4.15-9.81-9.17-19.15-14.91-27.96L1147.98,1036.04z"/>
		<path class="st3" d="M1004.27,1389.85v-85.02c0-2.36-1.91-4.27-4.27-4.27c-2.36,0-4.27,1.91-4.27,4.27v85.02
			c0,2.36,1.91,4.27,4.27,4.27C1002.36,1394.12,1004.27,1392.21,1004.27,1389.85"/>
		<path class="st3" d="M1004.28,708.59v-98.44c0-2.36-1.91-4.27-4.27-4.27c-2.36,0-4.27,1.91-4.27,4.27v98.44
			c0,2.36,1.91,4.27,4.27,4.27C1002.36,712.86,1004.28,710.95,1004.28,708.59"/>
		<path class="st3" d="M995.73,907.17v18.83v31.28c0,2.36,1.91,4.27,4.27,4.27c2.36,0,4.27-1.91,4.27-4.27l0-31.28v-18.83
			c0-2.36-1.91-4.27-4.27-4.27C997.64,902.9,995.73,904.81,995.73,907.17L995.73,907.17z"/>
		<path class="st3" d="M1055.88,863.29l-0.68,3.22c-0.49,2.31,0.99,4.58,3.29,5.07c2.31,0.49,4.58-0.98,5.07-3.29l0.68-3.22
			c0.49-2.31-0.98-4.58-3.29-5.07C1058.64,859.51,1056.37,860.98,1055.88,863.29"/>
		<path class="st3" d="M1104.78,633.31l-45.05,211.95c-0.49,2.31,0.98,4.58,3.29,5.07s4.58-0.98,5.07-3.29l45.05-211.95
			c0.49-2.31-0.98-4.58-3.29-5.07C1107.54,629.53,1105.27,631,1104.78,633.31"/>
		<path class="st3" d="M1047.11,904.58l-11.85,55.76c-0.49,2.31,0.98,4.58,3.29,5.07c2.31,0.49,4.58-0.98,5.07-3.29l11.85-55.76
			c0.49-2.31-0.98-4.58-3.29-5.07C1049.87,900.79,1047.6,902.27,1047.11,904.58"/>
		<path class="st3" d="M962.96,1300.38L945.19,1384c-0.49,2.31,0.98,4.58,3.29,5.07c2.31,0.49,4.58-0.98,5.07-3.29l17.78-83.62
			c0.49-2.31-0.98-4.58-3.29-5.07C965.73,1296.6,963.46,1298.07,962.96,1300.38"/>
		<path class="st3" d="M891.67,632.93l14.13,63.51l4.17-0.93h-4.27v0.03c0,0.31,0.03,0.63,0.1,0.93l33.45,150.09
			c0.51,2.3,2.8,3.76,5.1,3.24c2.3-0.51,3.76-2.8,3.24-5.1l-33.45-150.09l-4.17,0.93h4.27v-0.03c0-0.31-0.03-0.63-0.1-0.93
			l-14.13-63.51c-0.51-2.3-2.8-3.76-5.1-3.24C892.61,628.34,891.15,630.63,891.67,632.93L891.67,632.93z"/>
		<path class="st3" d="M952.27,905.09l5.44,24.36l7.09,31.96c0.5,2.27,2.71,3.71,4.99,3.27c9.8-1.92,19.92-2.97,30.26-3.11l0.09,0
			c0.7-0.02,1.48-0.03,2.3-0.03c12.37,0,24.46,1.33,36.07,3.86c2.31,0.5,4.58-0.96,5.08-3.27c0.5-2.31-0.96-4.58-3.27-5.08
			c-12.21-2.66-24.91-4.06-37.89-4.06c-0.83,0-1.7,0-2.6,0.03l0.15,4.27l-0.06-4.27c-10.85,0.15-21.48,1.26-31.79,3.27l0.82,4.19
			l4.17-0.93l-7.1-31.97l-5.44-24.37c-0.51-2.3-2.8-3.75-5.1-3.24C953.2,900.5,951.75,902.78,952.27,905.09L952.27,905.09z"/>
		<path class="st3" d="M1067.05,1381.2l-18.35-82.4c-0.51-2.3-2.8-3.76-5.1-3.24c-2.3,0.51-3.76,2.8-3.24,5.1l18.35,82.4
			c0.51,2.3,2.8,3.76,5.1,3.24C1066.11,1385.79,1067.56,1383.5,1067.05,1381.2"/>
		<path class="st3" d="M1165.47,1330.28l-48.78-67.81c-1.38-1.92-4.05-2.35-5.96-0.97c-1.92,1.38-2.35,4.05-0.97,5.97l48.78,67.81
			c1.38,1.92,4.05,2.35,5.96,0.97C1166.41,1334.87,1166.85,1332.2,1165.47,1330.28"/>
		<path class="st3" d="M914.2,980.92l-151.12-210.1l-0.45-0.53l-0.03-0.03c-1.67-1.67-4.38-1.67-6.04,0c-1.67,1.67-1.67,4.37,0,6.04
			l0.03,0.03l3.02-3.02l-3.47,2.5l151.12,210.1c1.38,1.92,4.05,2.35,5.96,0.97C915.14,985.51,915.58,982.84,914.2,980.92
			L914.2,980.92z"/>
		<path class="st3" d="M1119.82,1360.68l-34.5-76.56c-0.97-2.15-3.5-3.11-5.65-2.14c-2.15,0.97-3.11,3.5-2.14,5.65l34.5,76.56
			c0.97,2.15,3.5,3.11,5.65,2.14C1119.84,1365.37,1120.79,1362.84,1119.82,1360.68"/>
		<path class="st3" d="M801.31,700.65l131.95,266.78l1.62,3.61c0.97,2.15,3.5,3.11,5.65,2.15c2.15-0.97,3.11-3.5,2.15-5.65
			l-1.65-3.68l-0.07-0.14L808.97,696.86c-1.05-2.12-3.61-2.98-5.73-1.94C801.13,695.97,800.27,698.54,801.31,700.65L801.31,700.65z"
			/>
		<path class="st3" d="M927,1287.76l-35.07,78.49c-0.96,2.16,0,4.68,2.16,5.65c2.16,0.96,4.68,0,5.65-2.16l35.07-78.49
			c0.96-2.15,0-4.68-2.16-5.65C930.49,1284.64,927.96,1285.6,927,1287.76"/>
		<path class="st3" d="M1190.95,697.02L1089.87,923.3l-21.03,47.04c-0.96,2.15,0,4.68,2.16,5.65c2.15,0.96,4.68,0,5.65-2.16
			l21.03-47.04l101.08-226.28c0.96-2.16,0-4.68-2.16-5.65C1194.44,693.89,1191.91,694.86,1190.95,697.02L1190.95,697.02z"/>
		<path class="st3" d="M1242.45,786.14l-144.79,199.36c-1.39,1.91-0.96,4.58,0.95,5.97c1.91,1.39,4.58,0.96,5.97-0.95l144.79-199.36
			c1.39-1.91,0.96-4.58-0.95-5.97S1243.83,784.23,1242.45,786.14"/>
		<path class="st3" d="M893.46,1266.62l-50.8,69.95c-1.39,1.91-0.96,4.58,0.95,5.97c1.91,1.39,4.58,0.96,5.97-0.95l50.8-69.95
			c1.39-1.91,0.96-4.58-0.95-5.97C897.52,1264.29,894.84,1264.71,893.46,1266.62"/>
		<path class="st3" d="M863.42,1235.87l-64.53,58.27c-1.75,1.58-1.89,4.28-0.31,6.04c1.58,1.75,4.28,1.89,6.04,0.31l64.53-58.27
			c1.75-1.58,1.89-4.28,0.31-6.04C867.88,1234.43,865.17,1234.29,863.42,1235.87"/>
		<path class="st3" d="M1255.72,881.69l-134.85,121.74c-1.75,1.58-1.89,4.28-0.31,6.04c1.58,1.75,4.28,1.89,6.04,0.31l134.85-121.74
			c1.75-1.58,1.89-4.28,0.31-6.04C1260.18,880.25,1257.47,880.11,1255.72,881.69"/>
		<path class="st3" d="M846.79,1208.95l-75.02,44.3c-2.03,1.2-2.71,3.82-1.51,5.85c1.2,2.03,3.82,2.71,5.85,1.51l75.02-44.3
			c2.03-1.2,2.71-3.82,1.51-5.85C851.44,1208.43,848.82,1207.75,846.79,1208.95"/>
		<path class="st3" d="M1256.41,967.03l-110.6,65.33c-2.03,1.2-2.71,3.82-1.51,5.85c1.2,2.03,3.82,2.71,5.85,1.51l110.6-65.33
			c2.03-1.2,2.71-3.82,1.51-5.85S1258.44,965.83,1256.41,967.03"/>
		<path class="st3" d="M1204.47,1289.92l-62.17-55.13c-1.77-1.57-4.47-1.4-6.03,0.36c-1.57,1.77-1.4,4.47,0.36,6.03l62.17,55.13
			c1.77,1.57,4.47,1.4,6.03-0.36C1206.39,1294.19,1206.23,1291.49,1204.47,1289.92"/>
		<path class="st3" d="M882.8,1004.58L744.24,881.67c-1.77-1.57-4.47-1.4-6.03,0.36c-1.57,1.77-1.4,4.47,0.36,6.03l138.55,122.91
			c1.77,1.57,4.47,1.4,6.03-0.36S884.56,1006.15,882.8,1004.58"/>
		<path class="st3" d="M1233.84,1242.3l-72.23-40.54c-2.06-1.16-4.66-0.42-5.82,1.63c-1.16,2.06-0.42,4.66,1.63,5.82l72.23,40.54
			c2.06,1.16,4.66,0.42,5.82-1.63C1236.63,1246.06,1235.9,1243.45,1233.84,1242.3"/>
		<path class="st3" d="M859.23,1031.97L743.5,966.98c-2.06-1.16-4.66-0.42-5.82,1.63s-0.42,4.66,1.63,5.82l115.73,64.99
			c2.06,1.16,4.66,0.42,5.82-1.63C862.02,1035.73,861.29,1033.13,859.23,1031.97"/>
		<path class="st3" d="M831.88,1166.69l-83.14,27.1c-2.24,0.73-3.47,3.14-2.74,5.39c0.73,2.24,3.14,3.47,5.39,2.74l83.14-27.1
			c2.24-0.73,3.47-3.14,2.74-5.39C836.54,1167.18,834.13,1165.95,831.88,1166.69"/>
		<path class="st3" d="M1257.26,1027.96l-96.04,31.31c-2.24,0.73-3.47,3.14-2.74,5.39c0.73,2.24,3.14,3.47,5.39,2.74l96.04-31.31
			c2.24-0.73,3.47-3.14,2.74-5.39C1261.92,1028.45,1259.5,1027.23,1257.26,1027.96"/>
		<path class="st3" d="M1251.26,1193.79l-78.55-25.84c-2.24-0.74-4.66,0.48-5.4,2.72c-0.74,2.24,0.48,4.66,2.72,5.4l78.55,25.84
			c2.24,0.74,4.66-0.48,5.4-2.72C1254.72,1196.94,1253.5,1194.52,1251.26,1193.79"/>
		<path class="st3" d="M843.52,1059.67l-100.77-33.14c-2.24-0.74-4.66,0.48-5.39,2.73c-0.74,2.24,0.48,4.66,2.72,5.4l100.77,33.14
			c2.24,0.74,4.66-0.48,5.39-2.72C846.98,1062.83,845.76,1060.41,843.52,1059.67"/>
		<path class="st3" d="M828.16,1127.7l-87.01,10c-2.34,0.27-4.03,2.39-3.76,4.73c0.27,2.35,2.39,4.03,4.73,3.76l87.01-10
			c2.34-0.27,4.03-2.39,3.76-4.73C832.62,1129.11,830.5,1127.43,828.16,1127.7"/>
		<path class="st3" d="M1258.1,1078.35l-86.61,9.94c-2.34,0.27-4.03,2.39-3.76,4.73c0.27,2.34,2.39,4.03,4.73,3.76l86.61-9.94
			c2.34-0.27,4.03-2.39,3.76-4.73S1260.44,1078.08,1258.1,1078.35"/>
		<path class="st3" d="M1258.78,1137.69l-82.14-8.09c-2.35-0.23-4.44,1.49-4.67,3.83c-0.23,2.35,1.49,4.44,3.83,4.67l82.14,8.09
			c2.35,0.23,4.44-1.49,4.67-3.83C1262.84,1140.01,1261.12,1137.92,1258.78,1137.69"/>
		<path class="st3" d="M831.83,1095.7l-90-8.86c-2.35-0.23-4.44,1.49-4.67,3.83c-0.23,2.35,1.49,4.44,3.83,4.67l90,8.86
			c2.35,0.23,4.44-1.49,4.67-3.83C835.9,1098.02,834.18,1095.93,831.83,1095.7"/>
		<path class="st3" d="M1059.12,849.33c5.8,1.57,11.75,2.7,17.22,4.3c5.49,1.6,10.44,3.67,14.42,6.88c2.21,1.77,4.17,4.49,5.53,7.68
			c1.37,3.19,2.13,6.82,2.13,10.25c0,4.02-1.03,7.69-3,10.32c-1.27,1.71-3,3.13-5.09,4.29c-2.09,1.16-4.53,2.04-7.04,2.67
			c-23.43,5.89-48,7.2-72.48,7.23c-0.41,0-0.82,0-1.24,0c-24.5,0-48.81-1.09-72.31-6.75c-6.16-1.48-12.93-3.35-18.9-6.1
			c-5.98-2.76-11.06-6.36-14.23-11.12c-1.71-2.55-2.57-5.07-2.57-7.38c0.01-1.52,0.35-3.01,1.2-4.61c1.88-3.5,4.62-6.28,8.12-8.57
			c5.23-3.43,12.18-5.63,19.51-6.94c7.33-1.32,14.99-1.78,21.67-2.01c2.36-0.08,4.2-2.06,4.12-4.42c-0.08-2.36-2.06-4.2-4.42-4.12
			c-9.13,0.32-20.38,1.03-30.82,3.94c-5.22,1.46-10.27,3.48-14.73,6.39c-4.46,2.9-8.34,6.74-10.98,11.69
			c-1.5,2.78-2.22,5.76-2.22,8.65c0,4.44,1.61,8.56,4.02,12.14c4.42,6.58,10.93,10.96,17.75,14.12c6.85,3.15,14.12,5.12,20.48,6.65
			c24.57,5.91,49.57,6.99,74.31,6.99c0.42,0,0.83,0,1.25,0c24.77-0.04,50.04-1.33,74.56-7.49c3.05-0.77,6.17-1.86,9.09-3.48
			c2.92-1.62,5.67-3.78,7.82-6.68c3.32-4.5,4.67-9.98,4.68-15.41c0-4.67-1-9.35-2.82-13.61c-1.83-4.25-4.49-8.11-8.03-10.97
			c-5.29-4.26-11.37-6.67-17.38-8.43c-6.02-1.76-12.04-2.89-17.38-4.35c-2.28-0.62-4.63,0.72-5.25,3
			C1055.5,846.36,1056.84,848.71,1059.12,849.33L1059.12,849.33z"/>
		<path class="st3" d="M962.08,816.11l0.01-0.01c1.06-2.11,0.2-4.68-1.91-5.73c-2.11-1.06-4.68-0.2-5.73,1.91l-0.01,0.01
			c-1.06,2.11-0.2,4.68,1.91,5.73C958.46,819.07,961.02,818.22,962.08,816.11"/>
		<path class="st3" d="M945.81,846.85c-0.01,0.66-0.01,1.32-0.01,1.98c0,1.2,0.01,2.38,0.02,3.54l4.27-0.05h-4.27v0.01l0,0.04
			c0.04,5.11,0.2,9.69,0.29,12.67c0.05,1.65,1.04,3.11,2.55,3.78c2.05,0.9,4.45,1.53,7.27,2.08c8.42,1.63,20.74,2.41,34.17,2.74
			c1.16,0.03,2.26-0.41,3.09-1.21c0.83-0.81,1.29-1.9,1.29-3.06v-17.02v-5.17c0-0.4,0.33-0.72,0.72-0.73h19.93
			c0.4,0,0.72,0.32,0.72,0.73v5.08v17.15c0,1.14,0.46,2.25,1.28,3.05c0.81,0.8,1.93,1.24,3.07,1.22
			c10.69-0.19,20.49-0.56,27.73-0.97c3.62-0.21,6.6-0.42,8.77-0.64c1.09-0.11,1.97-0.21,2.72-0.34c0.38-0.07,0.71-0.13,1.13-0.24
			c0.21-0.06,0.45-0.13,0.8-0.29c0.18-0.08,0.39-0.19,0.68-0.38c0.28-0.19,0.65-0.46,1.09-1.04l-3.43-2.55l3.4,2.58
			c0.53-0.74,0.6-1.09,0.72-1.38c0.17-0.53,0.21-0.82,0.26-1.17c0.17-1.12,0.25-2.55,0.33-4.54c0.07-1.97,0.12-4.43,0.12-7.24
			c0-2.62-0.04-5.56-0.12-8.7c-0.16-5.56-1.41-13.06-3.3-21.81c-2.85-13.09-7.2-28.81-11.78-43.42
			c-4.58-14.61-9.35-28.05-13.14-36.7l-0.05-0.11c-11.14-23.61-26.31-36.38-39.63-43c-13.31-6.65-24.66-7.26-28.53-7.27
			c-0.84,0-1.34,0.03-1.43,0.04l0.29,4.26v-4.27h-47.02c-2.36,0-4.27,1.91-4.27,4.27c0,2.36,1.91,4.27,4.27,4.27l47.02,0l0.29-0.01
			l0.01,0c0.08,0,0.37-0.02,0.85-0.02c2.95,0,12.97,0.5,24.71,6.36c11.74,5.89,25.3,17.03,35.72,39.01l3.86-1.83l-3.91,1.72
			c4.75,10.82,11.58,30.84,17.21,50.46c2.82,9.82,5.34,19.56,7.19,28.04c1.85,8.46,3,15.73,3.11,20.23
			c0.08,3.07,0.12,5.93,0.12,8.47c0,3.33-0.06,6.11-0.16,8.05c-0.05,0.96-0.11,1.72-0.16,2.17l-0.03,0.26l-0.01,0.08l1.77,0.33
			l-1.72-0.52l-0.05,0.19l1.77,0.33l-1.72-0.52l3.66,1.11l-3.04-2.31c-0.54,0.77-0.54,1.02-0.62,1.19l3.66,1.11l-3.04-2.31
			l-0.03,0.03l3.31,2.46l-2.3-3.43c-0.25,0.17-0.6,0.42-1.02,0.97l3.31,2.46l-2.3-3.43l2.03,3.03l-1.2-3.45
			c-0.13,0.05-0.34,0.1-0.83,0.42l2.03,3.03l-1.2-3.45l0.58,1.68l-0.42-1.73l-0.16,0.05l0.58,1.68l-0.42-1.73
			c-0.02,0.01-0.52,0.1-1.2,0.18c-2.44,0.3-7.5,0.66-13.98,0.97c-6.5,0.31-14.49,0.58-23.04,0.73l0.07,4.27h4.27v-17.15v-5.08
			c0-5.12-4.15-9.27-9.27-9.27H995.2c-5.12,0-9.26,4.15-9.27,9.27v5.17v17.02h4.27l0.1-4.27c-8.79-0.21-17.1-0.64-23.88-1.34
			c-3.39-0.35-6.4-0.77-8.86-1.25c-2.46-0.47-4.39-1.04-5.46-1.52l-1.72,3.91l4.27-0.13c-0.09-2.99-0.25-7.49-0.29-12.47l0,0.04
			v-0.01l0-0.05c-0.01-1.12-0.02-2.27-0.02-3.43c0-0.64,0-1.28,0.01-1.92c0.02-2.36-1.88-4.29-4.24-4.31
			C947.76,842.59,945.83,844.49,945.81,846.85L945.81,846.85z"/>
		<path class="st3" d="M963.99,803.65L963.99,803.65c0-2.37-1.91-4.28-4.27-4.28s-4.27,1.91-4.27,4.27v0.01
			c0,2.36,1.91,4.27,4.27,4.27S963.99,806.01,963.99,803.65"/>
		<path class="st3" d="M1059.3,842.72l-0.12,0.03l0.96,4.17l-0.89-4.18c-13.93,2.96-27.2,4.56-39.36,5.26
			c-2.36,0.13-4.16,2.15-4.02,4.51c0.14,2.36,2.16,4.16,4.51,4.02c12.56-0.72,26.26-2.37,40.65-5.43l0.07-0.02l0.12-0.03
			c2.3-0.53,3.74-2.82,3.21-5.12C1063.89,843.63,1061.6,842.19,1059.3,842.72L1059.3,842.72z"/>
		<path class="st3" d="M948.97,851.01c0.22,0.06,16.04,4.3,41.02,5.6c2.36,0.12,4.37-1.69,4.49-4.05c0.12-2.36-1.69-4.37-4.05-4.49
			c-12.1-0.63-21.97-1.97-28.78-3.15c-3.41-0.59-6.05-1.14-7.83-1.54c-0.89-0.2-1.56-0.36-2-0.47l-0.49-0.12l-0.14-0.04
			c-2.28-0.61-4.62,0.74-5.24,3.02C945.34,848.05,946.69,850.4,948.97,851.01L948.97,851.01z"/>
		<path class="st3" d="M1015.85,869.41v1.45c0,0.4-0.32,0.73-0.73,0.73H995.2c-0.39,0-0.72-0.32-0.72-0.73v-1.49
			c0-2.36-1.91-4.27-4.27-4.27s-4.27,1.91-4.27,4.27l0,1.49c0,5.12,4.14,9.27,9.27,9.27h19.92c5.12,0,9.27-4.15,9.27-9.27v-1.45
			c0-2.36-1.91-4.27-4.27-4.27C1017.77,865.13,1015.85,867.05,1015.85,869.41L1015.85,869.41z"/>
		<path class="st3" d="M953.91,854.25l0.01-0.01c0.3-0.6,0.45-1.24,0.45-1.91v-0.01c0-2.36-1.91-4.27-4.27-4.27
			s-4.27,1.91-4.27,4.27l0,0.01h4.27l-3.82-1.91l-0.01,0.01c-1.06,2.11-0.2,4.68,1.91,5.73
			C950.29,857.22,952.86,856.36,953.91,854.25L953.91,854.25z"/>
		<path class="st3" d="M955.56,848.26c0.17-0.66,0.34-1.34,0.51-2.04l0,0.02c6.77-27.32,9.51-49.75,9.51-68.22
			c0-18.18-2.65-32.52-6.74-43.81c-6.11-16.94-15.48-26.95-23.42-32.57c-7.93-5.64-14.35-6.96-14.77-7.05
			c-2.32-0.46-4.56,1.05-5.02,3.37c-0.46,2.32,1.05,4.56,3.37,5.02l0.37-1.89l-0.4,1.88l0.02,0l0.37-1.89l-0.4,1.88
			c0.07,0.02,9.54,2.03,18.94,12.21c4.71,5.1,9.46,12.26,13.06,22.42c3.6,10.16,6.05,23.34,6.05,40.42
			c0,17.62-2.62,39.38-9.26,66.16l0,0.02c-0.15,0.64-0.32,1.29-0.5,1.98c-0.58,2.29,0.81,4.61,3.1,5.19
			C952.67,851.94,954.99,850.55,955.56,848.26L955.56,848.26z"/>
	</g>
</g>
</svg>
