<svg width="512" height="512" viewBox="0 0 512 512" fill="none" xmlns="http://www.w3.org/2000/svg">
<path d="M505.335 314.992L478.551 217.902C479.453 213.37 479.935 208.688 479.935 203.895C479.935 185.464 472.934 168.64 461.456 155.933L454.094 129.245C450.078 114.689 438.115 103.876 423.704 100.978C423.777 100.557 423.823 100.127 423.823 99.686C423.823 95.544 420.465 92.186 416.323 92.186H384.259C380.117 92.186 376.759 95.544 376.759 99.686C376.759 99.865 376.773 100.04 376.786 100.216C368.562 100.363 361.201 104.983 357.511 112.364C356.317 114.752 353.918 116.235 351.249 116.235H160.752C158.083 116.235 155.684 114.752 154.49 112.365C150.8 104.984 143.439 100.364 135.215 100.217C135.227 100.041 135.242 99.866 135.242 99.687C135.242 95.545 131.884 92.187 127.742 92.187H95.677C91.535 92.187 88.177 95.545 88.177 99.687C88.177 100.129 88.223 100.559 88.296 100.979C73.884 103.876 61.921 114.689 57.906 129.246L50.544 155.934C39.066 168.641 32.065 185.465 32.065 203.896C32.065 208.689 32.547 213.371 33.449 217.903L6.665 314.993C2.243 331.024 0 347.586 0 364.218C0 394.874 24.94 419.815 55.597 419.815C78.277 419.815 99.6 410.983 115.638 394.945L164.158 346.424C167.927 347.233 171.832 347.669 175.839 347.669C191.027 347.669 204.806 341.542 214.85 331.637H297.15C307.194 341.542 320.973 347.669 336.161 347.669C340.125 347.669 344.033 347.235 347.831 346.413L396.362 394.944C412.4 410.982 433.723 419.814 456.403 419.814C487.059 419.814 512 394.874 512 364.217C512 347.586 509.757 331.024 505.335 314.992ZM408.307 252.508C403.602 252.508 399.775 248.68 399.775 243.975C399.775 239.27 403.603 235.443 408.307 235.443C413.011 235.443 416.839 239.271 416.839 243.975C416.839 248.681 413.011 252.508 408.307 252.508ZM408.307 220.443C395.331 220.443 384.775 231 384.775 243.975C384.775 248.805 386.239 253.298 388.745 257.038C373.231 251.309 360.893 238.971 355.164 223.457C358.904 225.962 363.397 227.427 368.227 227.427C381.203 227.427 391.76 216.87 391.76 203.895C391.76 190.92 381.203 180.363 368.227 180.363C363.397 180.363 358.904 181.827 355.165 184.332C360.894 168.818 373.232 156.481 388.746 150.752C386.241 154.492 384.776 158.985 384.776 163.815C384.776 176.791 395.333 187.347 408.308 187.347C421.283 187.347 431.84 176.79 431.84 163.815C431.84 158.985 430.376 154.492 427.871 150.753C443.385 156.482 455.722 168.82 461.451 184.333C457.711 181.828 453.218 180.364 448.389 180.364C435.413 180.364 424.857 190.921 424.857 203.896C424.857 216.871 435.414 227.428 448.389 227.428C453.219 227.428 457.712 225.964 461.452 223.458C455.723 238.972 443.385 251.31 427.871 257.039C430.376 253.299 431.841 248.806 431.841 243.976C431.839 231 421.282 220.443 408.307 220.443ZM359.693 203.895C359.693 199.19 363.521 195.363 368.225 195.363C372.93 195.363 376.758 199.191 376.758 203.895C376.758 208.599 372.93 212.427 368.225 212.427C363.521 212.427 359.693 208.6 359.693 203.895ZM408.307 155.282C413.012 155.282 416.839 159.11 416.839 163.814C416.839 168.518 413.011 172.346 408.307 172.346C403.603 172.346 399.775 168.518 399.775 163.814C399.775 159.11 403.602 155.282 408.307 155.282ZM456.919 203.895C456.919 208.6 453.091 212.427 448.387 212.427C443.683 212.427 439.855 208.599 439.855 203.895C439.855 199.191 443.683 195.363 448.387 195.363C453.091 195.363 456.919 199.19 456.919 203.895ZM103.693 147.266C113.301 147.266 122.789 149.713 131.131 154.344C134.753 156.355 139.318 155.048 141.328 151.426C143.338 147.804 142.032 143.239 138.41 141.229C127.847 135.366 115.842 132.267 103.693 132.267C91.66 132.267 80.319 135.263 70.354 140.527L72.366 133.234C75.295 122.617 85.033 115.202 96.046 115.202H134.812C137.481 115.202 139.88 116.685 141.074 119.073C144.825 126.574 152.366 131.235 160.752 131.235H351.247C359.634 131.235 367.174 126.575 370.925 119.073C372.119 116.686 374.518 115.203 377.187 115.203H415.953C426.967 115.203 436.704 122.618 439.633 133.235L441.645 140.528C431.68 135.264 420.338 132.268 408.306 132.268C368.809 132.268 336.677 164.401 336.677 203.897C336.677 215.903 339.66 227.22 344.903 237.17C342.05 236.723 339.132 236.478 336.161 236.478C305.505 236.478 280.564 261.419 280.564 292.075C280.564 300.89 282.635 309.227 286.302 316.639H225.697C229.364 309.226 231.435 300.889 231.435 292.075C231.435 261.419 206.495 236.478 175.838 236.478C172.863 236.478 169.945 236.719 167.095 237.171C172.338 227.221 175.322 215.904 175.322 203.897C175.322 191.318 172.012 178.941 165.751 168.105C163.678 164.518 159.091 163.291 155.505 165.364C151.919 167.436 150.691 172.024 152.764 175.61C157.709 184.168 160.323 193.949 160.323 203.897C160.323 235.123 134.919 260.526 103.694 260.526C72.469 260.526 47.065 235.122 47.065 203.897C47.064 172.67 72.468 147.266 103.693 147.266ZM105.031 384.338C91.826 397.542 74.27 404.814 55.596 404.814C33.211 404.814 15 386.603 15 364.218C15 348.934 17.061 333.714 21.125 318.982L42.579 241.212C55.181 261.775 77.86 275.525 103.694 275.525C110.657 275.525 117.383 274.508 123.752 272.646C121.488 278.697 120.242 285.242 120.242 292.073C120.242 312.904 131.764 331.085 148.763 340.606L105.031 384.338ZM135.242 292.073C135.242 269.688 153.454 251.476 175.839 251.476C198.224 251.476 216.436 269.688 216.436 292.073C216.436 314.458 198.225 332.67 175.839 332.67C153.453 332.67 135.242 314.458 135.242 292.073ZM456.403 404.814C437.729 404.814 420.173 397.542 406.968 384.338L363.227 340.597C371.858 335.781 379.215 328.691 384.313 319.879C386.387 316.294 385.163 311.706 381.577 309.631C377.993 307.556 373.404 308.781 371.329 312.367C364.084 324.89 350.608 332.669 336.16 332.669C313.775 332.669 295.563 314.458 295.563 292.072C295.563 269.686 313.774 251.475 336.16 251.475C356.071 251.475 372.909 265.7 376.196 285.299C376.881 289.383 380.746 292.146 384.833 291.455C388.918 290.77 391.674 286.903 390.989 282.818C390.398 279.293 389.479 275.899 388.281 272.655C394.64 274.51 401.355 275.524 408.306 275.524C434.139 275.524 456.818 261.774 469.42 241.211L490.874 318.981C494.938 333.713 496.999 348.933 496.999 364.217C497 386.603 478.789 404.814 456.403 404.814Z" fill="#C1BBBB"/>
<path d="M103.693 235.443C121.089 235.443 135.241 221.291 135.241 203.895C135.241 186.499 121.089 172.347 103.693 172.347C86.297 172.347 72.145 186.499 72.145 203.895C72.145 221.291 86.297 235.443 103.693 235.443ZM103.693 187.347C112.818 187.347 120.241 194.77 120.241 203.895C120.241 213.02 112.818 220.443 103.693 220.443C94.568 220.443 87.145 213.02 87.145 203.895C87.145 194.77 94.568 187.347 103.693 187.347Z" fill="#C1BBBB"/>
<path d="M191.871 284.573H183.339V276.041C183.339 271.899 179.981 268.541 175.839 268.541C171.697 268.541 168.339 271.899 168.339 276.041V284.573H159.807C155.665 284.573 152.307 287.931 152.307 292.073C152.307 296.215 155.665 299.573 159.807 299.573H168.339V308.105C168.339 312.247 171.697 315.605 175.839 315.605C179.981 315.605 183.339 312.247 183.339 308.105V299.573H191.871C196.013 299.573 199.371 296.215 199.371 292.073C199.371 287.931 196.013 284.573 191.871 284.573Z" fill="#C1BBBB"/>
<path d="M336.161 268.541C323.185 268.541 312.629 279.098 312.629 292.073C312.629 305.048 323.186 315.605 336.161 315.605C349.136 315.605 359.693 305.048 359.693 292.073C359.693 279.098 349.137 268.541 336.161 268.541ZM336.161 300.605C331.456 300.605 327.629 296.777 327.629 292.073C327.629 287.369 331.457 283.541 336.161 283.541C340.865 283.541 344.693 287.369 344.693 292.073C344.693 296.777 340.866 300.605 336.161 300.605Z" fill="#C1BBBB"/>
<path d="M207.903 203.379H233.7C236.839 212.687 245.646 219.411 256 219.411C266.354 219.411 275.16 212.687 278.3 203.379H304.097C308.239 203.379 311.597 200.021 311.597 195.879C311.597 191.737 308.239 188.379 304.097 188.379H278.3C275.161 179.071 266.354 172.347 256 172.347C245.646 172.347 236.84 179.071 233.7 188.379H207.903C203.761 188.379 200.403 191.737 200.403 195.879C200.403 200.021 203.761 203.379 207.903 203.379ZM256 187.347C260.705 187.347 264.532 191.175 264.532 195.879C264.532 200.583 260.704 204.411 256 204.411C251.296 204.411 247.468 200.583 247.468 195.879C247.468 191.175 251.295 187.347 256 187.347Z" fill="#C1BBBB"/>
</svg>
