<svg width="512" height="512" viewBox="0 0 512 512" fill="none" xmlns="http://www.w3.org/2000/svg">
<path d="M24 80C26.1217 80 28.1566 79.1571 29.6569 77.6569C31.1571 76.1566 32 74.1217 32 72V32H72C74.1217 32 76.1566 31.1571 77.6569 29.6569C79.1571 28.1566 80 26.1217 80 24C80 21.8783 79.1571 19.8434 77.6569 18.3431C76.1566 16.8429 74.1217 16 72 16H24C21.8783 16 19.8434 16.8429 18.3431 18.3431C16.8429 19.8434 16 21.8783 16 24V72C16 74.1217 16.8429 76.1566 18.3431 77.6569C19.8434 79.1571 21.8783 80 24 80Z" fill="#EFC5F9"/>
<path d="M488 16H440C437.878 16 435.843 16.8429 434.343 18.3431C432.843 19.8434 432 21.8783 432 24C432 26.1217 432.843 28.1566 434.343 29.6569C435.843 31.1571 437.878 32 440 32H480V72C480 74.1217 480.843 76.1566 482.343 77.6569C483.843 79.1571 485.878 80 488 80C490.122 80 492.157 79.1571 493.657 77.6569C495.157 76.1566 496 74.1217 496 72V24C496 21.8783 495.157 19.8434 493.657 18.3431C492.157 16.8429 490.122 16 488 16V16Z" fill="#EFC5F9"/>
<path d="M72 480H32V440C32 437.878 31.1571 435.843 29.6569 434.343C28.1566 432.843 26.1217 432 24 432C21.8783 432 19.8434 432.843 18.3431 434.343C16.8429 435.843 16 437.878 16 440V488C16 490.122 16.8429 492.157 18.3431 493.657C19.8434 495.157 21.8783 496 24 496H72C74.1217 496 76.1566 495.157 77.6569 493.657C79.1571 492.157 80 490.122 80 488C80 485.878 79.1571 483.843 77.6569 482.343C76.1566 480.843 74.1217 480 72 480Z" fill="#EFC5F9"/>
<path d="M488 432C485.878 432 483.843 432.843 482.343 434.343C480.843 435.843 480 437.878 480 440V480H440C437.878 480 435.843 480.843 434.343 482.343C432.843 483.843 432 485.878 432 488C432 490.122 432.843 492.157 434.343 493.657C435.843 495.157 437.878 496 440 496H488C490.122 496 492.157 495.157 493.657 493.657C495.157 492.157 496 490.122 496 488V440C496 437.878 495.157 435.843 493.657 434.343C492.157 432.843 490.122 432 488 432Z" fill="#EFC5F9"/>
<path d="M160 152V56C160 53.8783 159.157 51.8434 157.657 50.3431C156.157 48.8429 154.122 48 152 48H56C53.8783 48 51.8434 48.8429 50.3431 50.3431C48.8429 51.8434 48 53.8783 48 56V152C48 154.122 48.8429 156.157 50.3431 157.657C51.8434 159.157 53.8783 160 56 160H152C154.122 160 156.157 159.157 157.657 157.657C159.157 156.157 160 154.122 160 152ZM144 144H64V64H144V144Z" fill="#EFC5F9"/>
<path d="M88 128H120C122.122 128 124.157 127.157 125.657 125.657C127.157 124.157 128 122.122 128 120V88C128 85.8783 127.157 83.8434 125.657 82.3431C124.157 80.8429 122.122 80 120 80H88C85.8783 80 83.8434 80.8429 82.3431 82.3431C80.8429 83.8434 80 85.8783 80 88V120C80 122.122 80.8429 124.157 82.3431 125.657C83.8434 127.157 85.8783 128 88 128ZM96 96H112V112H96V96Z" fill="#EFC5F9"/>
<path d="M464 56C464 53.8783 463.157 51.8434 461.657 50.3431C460.157 48.8429 458.122 48 456 48H360C357.878 48 355.843 48.8429 354.343 50.3431C352.843 51.8434 352 53.8783 352 56V152C352 154.122 352.843 156.157 354.343 157.657C355.843 159.157 357.878 160 360 160H456C458.122 160 460.157 159.157 461.657 157.657C463.157 156.157 464 154.122 464 152V56ZM448 144H368V64H448V144Z" fill="#EFC5F9"/>
<path d="M392 128H424C426.122 128 428.157 127.157 429.657 125.657C431.157 124.157 432 122.122 432 120V88C432 85.8783 431.157 83.8434 429.657 82.3431C428.157 80.8429 426.122 80 424 80H392C389.878 80 387.843 80.8429 386.343 82.3431C384.843 83.8434 384 85.8783 384 88V120C384 122.122 384.843 124.157 386.343 125.657C387.843 127.157 389.878 128 392 128ZM400 96H416V112H400V96Z" fill="#EFC5F9"/>
<path d="M152 352H56C53.8783 352 51.8434 352.843 50.3431 354.343C48.8429 355.843 48 357.878 48 360V456C48 458.122 48.8429 460.157 50.3431 461.657C51.8434 463.157 53.8783 464 56 464H152C154.122 464 156.157 463.157 157.657 461.657C159.157 460.157 160 458.122 160 456V360C160 357.878 159.157 355.843 157.657 354.343C156.157 352.843 154.122 352 152 352ZM144 448H64V368H144V448Z" fill="#EFC5F9"/>
<path d="M88 432H120C122.122 432 124.157 431.157 125.657 429.657C127.157 428.157 128 426.122 128 424V392C128 389.878 127.157 387.843 125.657 386.343C124.157 384.843 122.122 384 120 384H88C85.8783 384 83.8434 384.843 82.3431 386.343C80.8429 387.843 80 389.878 80 392V424C80 426.122 80.8429 428.157 82.3431 429.657C83.8434 431.157 85.8783 432 88 432ZM96 400H112V416H96V400Z" fill="#EFC5F9"/>
<path d="M216 88C218.122 88 220.157 87.1571 221.657 85.6569C223.157 84.1566 224 82.1217 224 80V56C224 53.8783 223.157 51.8434 221.657 50.3431C220.157 48.8429 218.122 48 216 48H184C181.878 48 179.843 48.8429 178.343 50.3431C176.843 51.8434 176 53.8783 176 56C176 58.1217 176.843 60.1566 178.343 61.6569C179.843 63.1571 181.878 64 184 64H208V80C208 82.1217 208.843 84.1566 210.343 85.6569C211.843 87.1571 213.878 88 216 88Z" fill="#EFC5F9"/>
<path d="M208 152H248C250.122 152 252.157 151.157 253.657 149.657C255.157 148.157 256 146.122 256 144C256 141.878 255.157 139.843 253.657 138.343C252.157 136.843 250.122 136 248 136H216V112C216 109.878 215.157 107.843 213.657 106.343C212.157 104.843 210.122 104 208 104H192V88C192 85.8783 191.157 83.8434 189.657 82.3431C188.157 80.8429 186.122 80 184 80C181.878 80 179.843 80.8429 178.343 82.3431C176.843 83.8434 176 85.8783 176 88V112C176 114.122 176.843 116.157 178.343 117.657C179.843 119.157 181.878 120 184 120H200V144C200 146.122 200.843 148.157 202.343 149.657C203.843 151.157 205.878 152 208 152Z" fill="#EFC5F9"/>
<path d="M264 48H248C245.878 48 243.843 48.8429 242.343 50.3431C240.843 51.8434 240 53.8783 240 56C240 58.1217 240.843 60.1566 242.343 61.6569C243.843 63.1571 245.878 64 248 64H264C266.122 64 268.157 63.1571 269.657 61.6569C271.157 60.1566 272 58.1217 272 56C272 53.8783 271.157 51.8434 269.657 50.3431C268.157 48.8429 266.122 48 264 48Z" fill="#EFC5F9"/>
<path d="M320 48H296C293.878 48 291.843 48.8429 290.343 50.3431C288.843 51.8434 288 53.8783 288 56V80H264C261.878 80 259.843 80.8429 258.343 82.3431C256.843 83.8434 256 85.8783 256 88C256 90.1217 256.843 92.1566 258.343 93.6569C259.843 95.1571 261.878 96 264 96H296C298.122 96 300.157 95.1571 301.657 93.6569C303.157 92.1566 304 90.1217 304 88V64H320C322.122 64 324.157 63.1571 325.657 61.6569C327.157 60.1566 328 58.1217 328 56C328 53.8783 327.157 51.8434 325.657 50.3431C324.157 48.8429 322.122 48 320 48Z" fill="#EFC5F9"/>
<path d="M280 112C277.878 112 275.843 112.843 274.343 114.343C272.843 115.843 272 117.878 272 120V144C272 146.122 272.843 148.157 274.343 149.657C275.843 151.157 277.878 152 280 152C282.122 152 284.157 151.157 285.657 149.657C287.157 148.157 288 146.122 288 144V120C288 117.878 287.157 115.843 285.657 114.343C284.157 112.843 282.122 112 280 112Z" fill="#EFC5F9"/>
<path d="M320 88V112H312C309.878 112 307.843 112.843 306.343 114.343C304.843 115.843 304 117.878 304 120C304 122.122 304.843 124.157 306.343 125.657C307.843 127.157 309.878 128 312 128H328C330.122 128 332.157 127.157 333.657 125.657C335.157 124.157 336 122.122 336 120V88C336 85.8783 335.157 83.8434 333.657 82.3431C332.157 80.8429 330.122 80 328 80C325.878 80 323.843 80.8429 322.343 82.3431C320.843 83.8434 320 85.8783 320 88Z" fill="#EFC5F9"/>
<path d="M232 112C232 114.122 232.843 116.157 234.343 117.657C235.843 119.157 237.878 120 240 120H248C250.122 120 252.157 119.157 253.657 117.657C255.157 116.157 256 114.122 256 112C256 109.878 255.157 107.843 253.657 106.343C252.157 104.843 250.122 104 248 104H240C237.878 104 235.843 104.843 234.343 106.343C232.843 107.843 232 109.878 232 112Z" fill="#EFC5F9"/>
<path d="M440 400C442.122 400 444.157 399.157 445.657 397.657C447.157 396.157 448 394.122 448 392C448 389.878 447.157 387.843 445.657 386.343C444.157 384.843 442.122 384 440 384H408V368H424C426.122 368 428.157 367.157 429.657 365.657C431.157 364.157 432 362.122 432 360V312C432 309.878 431.157 307.843 429.657 306.343C428.157 304.843 426.122 304 424 304C421.878 304 419.843 304.843 418.343 306.343C416.843 307.843 416 309.878 416 312V352H344V288C344 285.878 343.157 283.843 341.657 282.343C340.157 280.843 338.122 280 336 280H312V272C312 269.878 311.157 267.843 309.657 266.343C308.157 264.843 306.122 264 304 264H264V224C264 221.878 263.157 219.843 261.657 218.343C260.157 216.843 258.122 216 256 216C253.878 216 251.843 216.843 250.343 218.343C248.843 219.843 248 221.878 248 224V232H232V192C232 189.878 231.157 187.843 229.657 186.343C228.157 184.843 226.122 184 224 184C221.878 184 219.843 184.843 218.343 186.343C216.843 187.843 216 189.878 216 192V240C216 242.122 216.843 244.157 218.343 245.657C219.843 247.157 221.878 248 224 248H248V272C248 274.122 248.843 276.157 250.343 277.657C251.843 279.157 253.878 280 256 280H296V288C296 290.122 296.843 292.157 298.343 293.657C299.843 295.157 301.878 296 304 296H328V312H312C309.878 312 307.843 312.843 306.343 314.343C304.843 315.843 304 317.878 304 320C304 322.122 304.843 324.157 306.343 325.657C307.843 327.157 309.878 328 312 328H328V448C328 450.122 328.843 452.157 330.343 453.657C331.843 455.157 333.878 456 336 456C338.122 456 340.157 455.157 341.657 453.657C343.157 452.157 344 450.122 344 448V432H360V448C360 450.122 360.843 452.157 362.343 453.657C363.843 455.157 365.878 456 368 456C370.122 456 372.157 455.157 373.657 453.657C375.157 452.157 376 450.122 376 448V432H392V456C392 458.122 392.843 460.157 394.343 461.657C395.843 463.157 397.878 464 400 464C402.122 464 404.157 463.157 405.657 461.657C407.157 460.157 408 458.122 408 456V400H440ZM344 368H392V416H344V368Z" fill="#EFC5F9"/>
<path d="M216 448V424C216 421.878 215.157 419.843 213.657 418.343C212.157 416.843 210.122 416 208 416H200V384H248C250.122 384 252.157 383.157 253.657 381.657C255.157 380.157 256 378.122 256 376V344C256 341.878 255.157 339.843 253.657 338.343C252.157 336.843 250.122 336 248 336H240V312C240 309.878 239.157 307.843 237.657 306.343C236.157 304.843 234.122 304 232 304H216V272C216 269.878 215.157 267.843 213.657 266.343C212.157 264.843 210.122 264 208 264C205.878 264 203.843 264.843 202.343 266.343C200.843 267.843 200 269.878 200 272V304H184C181.878 304 179.843 304.843 178.343 306.343C176.843 307.843 176 309.878 176 312V344C176 346.122 176.843 348.157 178.343 349.657C179.843 351.157 181.878 352 184 352C186.122 352 188.157 351.157 189.657 349.657C191.157 348.157 192 346.122 192 344V320H224V336H216C213.878 336 211.843 336.843 210.343 338.343C208.843 339.843 208 341.878 208 344V368H192C189.878 368 187.843 368.843 186.343 370.343C184.843 371.843 184 373.878 184 376V416C181.878 416 179.843 416.843 178.343 418.343C176.843 419.843 176 421.878 176 424C176 426.122 176.843 428.157 178.343 429.657C179.843 431.157 181.878 432 184 432H200V448H184C181.878 448 179.843 448.843 178.343 450.343C176.843 451.843 176 453.878 176 456C176 458.122 176.843 460.157 178.343 461.657C179.843 463.157 181.878 464 184 464H216C218.122 464 220.157 463.157 221.657 461.657C223.157 460.157 224 458.122 224 456C224 453.878 223.157 451.843 221.657 450.343C220.157 448.843 218.122 448 216 448ZM224 352H240V368H224V352Z" fill="#EFC5F9"/>
<path d="M304 400H272C269.878 400 267.843 400.843 266.343 402.343C264.843 403.843 264 405.878 264 408V448H248C245.878 448 243.843 448.843 242.343 450.343C240.843 451.843 240 453.878 240 456C240 458.122 240.843 460.157 242.343 461.657C243.843 463.157 245.878 464 248 464H288C290.122 464 292.157 463.157 293.657 461.657C295.157 460.157 296 458.122 296 456C296 453.878 295.157 451.843 293.657 450.343C292.157 448.843 290.122 448 288 448H280V416H296V424C296 426.122 296.843 428.157 298.343 429.657C299.843 431.157 301.878 432 304 432C306.122 432 308.157 431.157 309.657 429.657C311.157 428.157 312 426.122 312 424V408C312 405.878 311.157 403.843 309.657 402.343C308.157 400.843 306.122 400 304 400Z" fill="#EFC5F9"/>
<path d="M248 424V408C248 405.878 247.157 403.843 245.657 402.343C244.157 400.843 242.122 400 240 400C237.878 400 235.843 400.843 234.343 402.343C232.843 403.843 232 405.878 232 408V424C232 426.122 232.843 428.157 234.343 429.657C235.843 431.157 237.878 432 240 432C242.122 432 244.157 431.157 245.657 429.657C247.157 428.157 248 426.122 248 424Z" fill="#EFC5F9"/>
<path d="M304 352H280C277.878 352 275.843 352.843 274.343 354.343C272.843 355.843 272 357.878 272 360C272 362.122 272.843 364.157 274.343 365.657C275.843 367.157 277.878 368 280 368H304C306.122 368 308.157 367.157 309.657 365.657C311.157 364.157 312 362.122 312 360C312 357.878 311.157 355.843 309.657 354.343C308.157 352.843 306.122 352 304 352Z" fill="#EFC5F9"/>
<path d="M280 336C282.122 336 284.157 335.157 285.657 333.657C287.157 332.157 288 330.122 288 328V304C288 301.878 287.157 299.843 285.657 298.343C284.157 296.843 282.122 296 280 296H256C253.878 296 251.843 296.843 250.343 298.343C248.843 299.843 248 301.878 248 304C248 306.122 248.843 308.157 250.343 309.657C251.843 311.157 253.878 312 256 312H272V328C272 330.122 272.843 332.157 274.343 333.657C275.843 335.157 277.878 336 280 336Z" fill="#EFC5F9"/>
<path d="M464 280C464 277.878 463.157 275.843 461.657 274.343C460.157 272.843 458.122 272 456 272C453.878 272 451.843 272.843 450.343 274.343C448.843 275.843 448 277.878 448 280V304C448 306.122 448.843 308.157 450.343 309.657C451.843 311.157 453.878 312 456 312C458.122 312 460.157 311.157 461.657 309.657C463.157 308.157 464 306.122 464 304V280Z" fill="#EFC5F9"/>
<path d="M456 328C453.878 328 451.843 328.843 450.343 330.343C448.843 331.843 448 333.878 448 336V368C448 370.122 448.843 372.157 450.343 373.657C451.843 375.157 453.878 376 456 376C458.122 376 460.157 375.157 461.657 373.657C463.157 372.157 464 370.122 464 368V336C464 333.878 463.157 331.843 461.657 330.343C460.157 328.843 458.122 328 456 328Z" fill="#EFC5F9"/>
<path d="M368 336H392C394.122 336 396.157 335.157 397.657 333.657C399.157 332.157 400 330.122 400 328C400 325.878 399.157 323.843 397.657 322.343C396.157 320.843 394.122 320 392 320H376V304C376 301.878 375.157 299.843 373.657 298.343C372.157 296.843 370.122 296 368 296C365.878 296 363.843 296.843 362.343 298.343C360.843 299.843 360 301.878 360 304V328C360 330.122 360.843 332.157 362.343 333.657C363.843 335.157 365.878 336 368 336Z" fill="#EFC5F9"/>
<path d="M120 216C120 213.878 119.157 211.843 117.657 210.343C116.157 208.843 114.122 208 112 208H96V184C96 181.878 95.1571 179.843 93.6569 178.343C92.1566 176.843 90.1217 176 88 176H56C53.8783 176 51.8434 176.843 50.3431 178.343C48.8429 179.843 48 181.878 48 184C48 186.122 48.8429 188.157 50.3431 189.657C51.8434 191.157 53.8783 192 56 192H80V216C80 218.122 80.8429 220.157 82.3431 221.657C83.8434 223.157 85.8783 224 88 224H112C114.122 224 116.157 223.157 117.657 221.657C119.157 220.157 120 218.122 120 216Z" fill="#EFC5F9"/>
<path d="M136 192H176C178.122 192 180.157 191.157 181.657 189.657C183.157 188.157 184 186.122 184 184V144C184 141.878 183.157 139.843 181.657 138.343C180.157 136.843 178.122 136 176 136C173.878 136 171.843 136.843 170.343 138.343C168.843 139.843 168 141.878 168 144V176H136C133.878 176 131.843 176.843 130.343 178.343C128.843 179.843 128 181.878 128 184C128 186.122 128.843 188.157 130.343 189.657C131.843 191.157 133.878 192 136 192Z" fill="#EFC5F9"/>
<path d="M48 232V264C48 266.122 48.8429 268.157 50.3431 269.657C51.8434 271.157 53.8783 272 56 272C58.1217 272 60.1566 271.157 61.6569 269.657C63.1571 268.157 64 266.122 64 264V232C64 229.878 63.1571 227.843 61.6569 226.343C60.1566 224.843 58.1217 224 56 224C53.8783 224 51.8434 224.843 50.3431 226.343C48.8429 227.843 48 229.878 48 232Z" fill="#EFC5F9"/>
<path d="M88 240C85.8783 240 83.8434 240.843 82.3431 242.343C80.8429 243.843 80 245.878 80 248C80 250.122 80.8429 252.157 82.3431 253.657C83.8434 255.157 85.8783 256 88 256H104C106.122 256 108.157 255.157 109.657 253.657C111.157 252.157 112 250.122 112 248C112 245.878 111.157 243.843 109.657 242.343C108.157 240.843 106.122 240 104 240H88Z" fill="#EFC5F9"/>
<path d="M184 272V256H192C194.122 256 196.157 255.157 197.657 253.657C199.157 252.157 200 250.122 200 248C200 245.878 199.157 243.843 197.657 242.343C196.157 240.843 194.122 240 192 240H184V216C184 213.878 183.157 211.843 181.657 210.343C180.157 208.843 178.122 208 176 208H144C141.878 208 139.843 208.843 138.343 210.343C136.843 211.843 136 213.878 136 216C136 218.122 136.843 220.157 138.343 221.657C139.843 223.157 141.878 224 144 224H168V240H136C133.878 240 131.843 240.843 130.343 242.343C128.843 243.843 128 245.878 128 248V272H120C117.878 272 115.843 272.843 114.343 274.343C112.843 275.843 112 277.878 112 280V320H96V296C96 293.878 95.1571 291.843 93.6569 290.343C92.1566 288.843 90.1217 288 88 288H56C53.8783 288 51.8434 288.843 50.3431 290.343C48.8429 291.843 48 293.878 48 296C48 298.122 48.8429 300.157 50.3431 301.657C51.8434 303.157 53.8783 304 56 304H80V320H56C53.8783 320 51.8434 320.843 50.3431 322.343C48.8429 323.843 48 325.878 48 328C48 330.122 48.8429 332.157 50.3431 333.657C51.8434 335.157 53.8783 336 56 336H152C154.122 336 156.157 335.157 157.657 333.657C159.157 332.157 160 330.122 160 328C160 325.878 159.157 323.843 157.657 322.343C156.157 320.843 154.122 320 152 320H128V288H144V296C144 298.122 144.843 300.157 146.343 301.657C147.843 303.157 149.878 304 152 304C154.122 304 156.157 303.157 157.657 301.657C159.157 300.157 160 298.122 160 296V280C160 277.878 159.157 275.843 157.657 274.343C156.157 272.843 154.122 272 152 272H144V256H168V272C168 274.122 168.843 276.157 170.343 277.657C171.843 279.157 173.878 280 176 280C178.122 280 180.157 279.157 181.657 277.657C183.157 276.157 184 274.122 184 272Z" fill="#EFC5F9"/>
<path d="M264 184H280C282.122 184 284.157 183.157 285.657 181.657C287.157 180.157 288 178.122 288 176C288 173.878 287.157 171.843 285.657 170.343C284.157 168.843 282.122 168 280 168H264C261.878 168 259.843 168.843 258.343 170.343C256.843 171.843 256 173.878 256 176C256 178.122 256.843 180.157 258.343 181.657C259.843 183.157 261.878 184 264 184Z" fill="#EFC5F9"/>
<path d="M296 216H312C314.122 216 316.157 215.157 317.657 213.657C319.157 212.157 320 210.122 320 208C320 205.878 319.157 203.843 317.657 202.343C316.157 200.843 314.122 200 312 200H296C293.878 200 291.843 200.843 290.343 202.343C288.843 203.843 288 205.878 288 208C288 210.122 288.843 212.157 290.343 213.657C291.843 215.157 293.878 216 296 216Z" fill="#EFC5F9"/>
<path d="M352 192V224C352 226.122 352.843 228.157 354.343 229.657C355.843 231.157 357.878 232 360 232H376C378.122 232 380.157 231.157 381.657 229.657C383.157 228.157 384 226.122 384 224C384 221.878 383.157 219.843 381.657 218.343C380.157 216.843 378.122 216 376 216H368V192H400C402.122 192 404.157 191.157 405.657 189.657C407.157 188.157 408 186.122 408 184C408 181.878 407.157 179.843 405.657 178.343C404.157 176.843 402.122 176 400 176H344V168C344 165.878 343.157 163.843 341.657 162.343C340.157 160.843 338.122 160 336 160H320V144C320 141.878 319.157 139.843 317.657 138.343C316.157 136.843 314.122 136 312 136C309.878 136 307.843 136.843 306.343 138.343C304.843 139.843 304 141.878 304 144V168C304 170.122 304.843 172.157 306.343 173.657C307.843 175.157 309.878 176 312 176H328V184C328 186.122 328.843 188.157 330.343 189.657C331.843 191.157 333.878 192 336 192H352Z" fill="#EFC5F9"/>
<path d="M288 248H328C330.122 248 332.157 247.157 333.657 245.657C335.157 244.157 336 242.122 336 240C336 237.878 335.157 235.843 333.657 234.343C332.157 232.843 330.122 232 328 232H288C285.878 232 283.843 232.843 282.343 234.343C280.843 235.843 280 237.878 280 240C280 242.122 280.843 244.157 282.343 245.657C283.843 247.157 285.878 248 288 248Z" fill="#EFC5F9"/>
<path d="M464 184C464 181.878 463.157 179.843 461.657 178.343C460.157 176.843 458.122 176 456 176H432C429.878 176 427.843 176.843 426.343 178.343C424.843 179.843 424 181.878 424 184C424 186.122 424.843 188.157 426.343 189.657C427.843 191.157 429.878 192 432 192H448V208H424C421.878 208 419.843 208.843 418.343 210.343C416.843 211.843 416 213.878 416 216C416 218.122 416.843 220.157 418.343 221.657C419.843 223.157 421.878 224 424 224H448V240H416C413.878 240 411.843 240.843 410.343 242.343C408.843 243.843 408 245.878 408 248C408 250.122 408.843 252.157 410.343 253.657C411.843 255.157 413.878 256 416 256H456C458.122 256 460.157 255.157 461.657 253.657C463.157 252.157 464 250.122 464 248V184Z" fill="#EFC5F9"/>
<path d="M352 264H360V272C360 274.122 360.843 276.157 362.343 277.657C363.843 279.157 365.878 280 368 280C370.122 280 372.157 279.157 373.657 277.657C375.157 276.157 376 274.122 376 272V256C376 253.878 375.157 251.843 373.657 250.343C372.157 248.843 370.122 248 368 248H352C349.878 248 347.843 248.843 346.343 250.343C344.843 251.843 344 253.878 344 256C344 258.122 344.843 260.157 346.343 261.657C347.843 263.157 349.878 264 352 264Z" fill="#EFC5F9"/>
<path d="M408 296V288H424C426.122 288 428.157 287.157 429.657 285.657C431.157 284.157 432 282.122 432 280C432 277.878 431.157 275.843 429.657 274.343C428.157 272.843 426.122 272 424 272H400C397.878 272 395.843 272.843 394.343 274.343C392.843 275.843 392 277.878 392 280V296C392 298.122 392.843 300.157 394.343 301.657C395.843 303.157 397.878 304 400 304C402.122 304 404.157 303.157 405.657 301.657C407.157 300.157 408 298.122 408 296Z" fill="#EFC5F9"/>
<path d="M440 456V432H456C458.122 432 460.157 431.157 461.657 429.657C463.157 428.157 464 426.122 464 424C464 421.878 463.157 419.843 461.657 418.343C460.157 416.843 458.122 416 456 416H432C429.878 416 427.843 416.843 426.343 418.343C424.843 419.843 424 421.878 424 424V456C424 458.122 424.843 460.157 426.343 461.657C427.843 463.157 429.878 464 432 464C434.122 464 436.157 463.157 437.657 461.657C439.157 460.157 440 458.122 440 456Z" fill="#EFC5F9"/>
<path d="M368 400C372.418 400 376 396.418 376 392C376 387.582 372.418 384 368 384C363.582 384 360 387.582 360 392C360 396.418 363.582 400 368 400Z" fill="#EFC5F9"/>
</svg>
