<svg width="512" height="512" viewBox="0 0 512 512" fill="none" xmlns="http://www.w3.org/2000/svg">
<g clip-path="url(#clip0_318_3450)">
<path d="M133.583 414.488L117.823 417.271C113.754 417.99 109.873 415.278 109.153 411.209L106.37 395.437C105.898 392.38 103.81 389.812 100.906 388.734C98.0058 387.655 94.7498 388.233 92.3929 390.239C90.0359 392.248 88.9532 395.375 89.5591 398.408L92.3343 414.179C94.4215 425.898 104.604 434.442 116.506 434.47C117.936 434.466 119.367 434.341 120.774 434.094L136.546 431.307C139.552 430.78 142.045 428.685 143.089 425.816C144.129 422.951 143.566 419.741 141.604 417.408C139.641 415.071 136.581 413.957 133.575 414.488H133.583Z" fill="#BEC7F7"/>
<path d="M298.398 377.813L295.623 362.041C295.091 359.039 293 356.545 290.131 355.502C287.262 354.458 284.057 355.025 281.719 356.987C279.382 358.949 278.272 362.01 278.803 365.015L281.579 380.775C281.923 382.73 281.481 384.739 280.347 386.361C279.21 387.987 277.475 389.093 275.524 389.433L259.752 392.228C255.41 393.014 252.384 396.977 252.768 401.37C253.151 405.768 256.817 409.145 261.23 409.168C261.73 409.172 262.231 409.129 262.723 409.039L278.487 406.256C284.901 405.127 290.6 401.496 294.337 396.16C298.07 390.829 299.531 384.227 298.398 377.813Z" fill="#BEC7F7"/>
<path d="M200.144 54.206L215.912 51.423C217.866 51.0673 219.879 51.5129 221.498 52.6582C223.124 53.7956 224.23 55.5311 224.574 57.4854L227.357 73.2532C228.076 77.33 231.613 80.3006 235.749 80.3084C236.249 80.3084 236.749 80.2654 237.242 80.1794C239.474 79.7847 241.459 78.5221 242.757 76.6655C244.055 74.8089 244.563 72.5144 244.168 70.2826L241.393 54.5226C239.013 41.1783 226.294 32.2781 212.941 34.6077L197.17 37.3829C194.168 37.9145 191.674 40.0096 190.631 42.8746C189.587 45.7436 190.154 48.9488 192.116 51.2862C194.078 53.6236 197.139 54.7376 200.144 54.206Z" fill="#BEC7F7"/>
<path d="M58.1602 79.257L73.9319 76.5092C78.5754 75.6884 81.6789 71.2559 80.8581 66.6123C80.0373 61.9649 75.6048 58.8652 70.9612 59.6861L55.1974 62.4691C41.853 64.8417 32.9451 77.5685 35.2864 90.9206L38.0616 106.692C38.7808 110.769 42.3221 113.744 46.4614 113.744C46.9656 113.744 47.462 113.701 47.9584 113.619C50.1864 113.224 52.172 111.961 53.4697 110.105C54.7674 108.248 55.2756 105.954 54.8808 103.722L52.0978 87.95C51.7538 85.9996 52.1994 83.9866 53.3368 82.3645C54.4743 80.7423 56.2097 79.6362 58.1602 79.2922V79.257Z" fill="#BEC7F7"/>
<path d="M186.855 303.809C189.11 297.027 189.298 289.726 187.394 282.839C191.24 281.275 194.899 279.289 198.307 276.921C201.446 279.684 203.521 283.456 204.174 287.584C208.587 306.064 220.712 311.947 227.177 312.51C227.431 312.521 227.685 312.521 227.935 312.51C232.395 312.525 236.144 309.164 236.613 304.731C236.851 302.499 236.183 300.268 234.756 298.532C233.333 296.801 231.273 295.71 229.038 295.511C228.807 295.46 223.343 294.295 220.782 283.554C219.336 276.534 215.834 270.1 210.721 265.077C211.319 264.319 211.945 263.592 212.5 262.787C214.306 260.18 215.892 257.424 217.237 254.547C221.345 255.36 225.039 257.592 227.673 260.852C233.665 267.954 242.366 272.223 251.657 272.609C254.546 272.645 257.407 272.062 260.049 270.901C264.353 268.892 266.252 263.811 264.322 259.476C263.411 257.42 261.718 255.818 259.615 255.028C257.513 254.238 255.179 254.324 253.143 255.274C252.939 255.36 247.6 257.068 240.037 249.075C235.276 243.728 229.034 239.913 222.103 238.119C222.682 234.011 222.803 229.848 222.463 225.713C226.419 224.384 230.71 224.474 234.604 225.971C252.853 231.384 263.978 223.825 267.691 218.505C270.435 214.624 269.551 209.261 265.713 206.458C263.895 205.137 261.628 204.602 259.416 204.969C257.2 205.337 255.226 206.576 253.936 208.413C253.776 208.585 250.027 212.736 239.482 209.601C232.696 207.35 225.395 207.158 218.5 209.054C216.936 205.219 214.947 201.572 212.574 198.176C215.334 195.018 219.113 192.93 223.257 192.285C241.733 187.868 247.62 175.744 248.182 169.283C248.608 164.549 245.161 160.347 240.435 159.847C238.207 159.616 235.979 160.289 234.248 161.711C232.516 163.134 231.426 165.19 231.215 167.418C231.215 167.649 230.003 173.117 219.262 175.677C212.23 177.12 205.792 180.63 200.766 185.754C197.506 183.209 193.976 181.028 190.247 179.246C191.057 175.126 193.288 171.425 196.556 168.786C210.346 155.731 209.365 142.316 206.641 136.406C204.631 132.111 199.55 130.211 195.215 132.138C193.163 133.049 191.561 134.741 190.771 136.844C189.982 138.947 190.068 141.277 191.014 143.313C191.092 143.528 192.815 148.848 184.814 156.423C179.467 161.18 175.648 167.422 173.85 174.352C169.746 173.778 165.587 173.66 161.452 173.996C160.166 170.045 160.287 165.765 161.804 161.895C167.217 143.68 159.662 132.529 154.342 128.808C150.457 126.076 145.098 126.955 142.291 130.789C140.97 132.603 140.435 134.87 140.802 137.086C141.17 139.299 142.413 141.273 144.25 142.563C144.429 142.719 148.577 146.467 145.434 157.021C143.183 163.806 142.995 171.104 144.891 177.999C141.044 179.559 137.39 181.54 133.985 183.909C130.847 181.145 128.771 177.374 128.118 173.242C123.705 154.766 111.581 148.883 105.116 148.32C100.382 147.89 96.1841 151.338 95.6799 156.063C95.4415 158.295 96.1099 160.527 97.5326 162.262C98.9593 163.994 101.019 165.085 103.255 165.284C103.486 165.284 108.95 166.496 111.51 177.241C112.964 184.245 116.474 190.659 121.587 195.666C120.989 196.432 120.367 197.159 119.812 197.965C118.003 200.572 116.416 203.327 115.071 206.204C110.963 205.383 107.273 203.155 104.639 199.9C91.5914 186.121 78.1689 187.095 72.2589 189.815C67.9593 191.824 66.0596 196.905 67.9906 201.24C68.8974 203.296 70.5938 204.895 72.6966 205.688C74.7995 206.478 77.1291 206.388 79.1656 205.442C79.3806 205.364 84.7081 203.66 92.2715 211.641C97.0323 216.996 103.275 220.819 110.205 222.633C109.638 226.733 109.521 230.884 109.853 235.012C105.901 236.34 101.606 236.247 97.7124 234.746C79.4978 229.317 68.3462 236.884 64.6251 242.204C62.7568 244.807 62.4949 248.235 63.9411 251.096C65.3834 253.957 68.3033 255.779 71.5084 255.822C74.2132 255.825 76.7461 254.5 78.2861 252.276C78.4503 252.108 82.187 247.957 92.7445 251.092C99.53 253.343 106.831 253.531 113.723 251.627C115.278 255.474 117.26 259.132 119.633 262.533C116.873 265.679 113.101 267.759 108.966 268.408C90.4969 272.821 84.6143 284.938 84.0437 291.403C83.6098 296.136 87.0534 300.338 91.779 300.846H92.5725C96.9424 300.912 100.624 297.594 101.007 293.24C101.05 293.009 102.219 287.541 112.964 284.981C119.98 283.538 126.41 280.036 131.433 274.923C132.199 275.521 132.926 276.143 133.727 276.698C136.338 278.508 139.094 280.095 141.967 281.447C141.158 285.551 138.926 289.245 135.666 291.872C121.868 304.927 122.857 318.341 125.582 324.251C127.028 327.332 130.12 329.305 133.524 329.321C134.728 329.321 135.916 329.059 137.007 328.555C139.059 327.644 140.658 325.948 141.451 323.845C142.241 321.746 142.151 319.412 141.209 317.376C141.13 317.153 139.407 311.833 147.408 304.27C152.759 299.509 156.574 293.271 158.372 286.337C160.916 286.712 163.484 286.908 166.056 286.927C167.592 286.927 169.148 286.646 170.7 286.517C172.123 290.519 172.056 294.901 170.512 298.857C165.099 317.071 172.658 328.223 177.978 331.944C179.455 332.976 181.218 333.527 183.024 333.523C185.795 333.55 188.406 332.221 190.017 329.962C191.338 328.148 191.877 325.877 191.51 323.665C191.146 321.449 189.903 319.471 188.07 318.181C187.863 318.103 183.716 314.362 186.855 303.809V303.809ZM127.298 237.447C127.298 237.282 127.298 237.138 127.223 236.978C124.245 219.439 133.364 202.081 149.491 194.576C165.619 187.075 184.771 191.289 196.267 204.864C196.345 204.973 196.411 205.082 196.497 205.196C200.875 210.406 203.818 216.668 205.034 223.364C205.034 223.52 205.034 223.672 205.104 223.825C208.685 245.147 194.473 265.39 173.201 269.26L172.775 269.33C151.446 272.938 131.179 258.73 127.298 237.447V237.447Z" fill="#BEC7F7"/>
<path d="M477.773 82.6302L296.357 48.7417C288.603 47.2602 280.586 47.9795 273.218 50.8133L270.478 35.2761C268.508 24.1246 262.191 14.212 252.916 7.71576C243.637 1.22338 232.161 -1.31729 221.013 0.648797L35.9509 33.31C24.7993 35.28 14.8868 41.5965 8.39445 50.8719C1.90208 60.1473 -0.6425 71.6233 1.32749 82.7748L63.2064 433.426C66.8141 453.79 84.4776 468.651 105.159 468.718C107.676 468.714 110.193 468.491 112.671 468.049L186.284 455.065C192.28 466.701 203.307 474.921 216.17 477.348L397.695 511.248C400.333 511.749 403.011 511.999 405.696 511.999C426.201 511.936 443.751 497.271 447.457 477.102L511.927 132.498C514.018 121.354 511.595 109.839 505.188 100.485C498.782 91.1317 488.917 84.7097 477.773 82.638V82.6302ZM327.678 359.43L324.664 342.353C344.579 332.831 359.386 315.14 365.253 293.861C371.123 272.582 367.477 249.802 355.258 231.419C347.054 219.041 335.273 209.464 321.487 203.957C329.929 202.573 338.552 202.663 346.968 204.223C386.793 212.728 413.506 250.271 408.483 290.683C403.46 331.1 368.376 360.966 327.678 359.465V359.43ZM304.706 216.738C319.587 219.529 332.697 228.242 341.03 240.879C350.028 254.454 353.038 271.136 349.344 286.994C345.65 302.855 335.581 316.493 321.514 324.693L302.447 216.449C303.198 216.543 303.956 216.602 304.706 216.738V216.738ZM109.708 451.222C95.7777 453.681 82.492 444.386 80.0295 430.455L18.1467 79.8042C15.692 65.8736 24.9948 52.5917 38.9215 50.1332L223.976 17.4719C225.461 17.21 226.97 17.0771 228.483 17.0771C240.893 17.1045 251.501 26.0242 253.655 38.2467L315.534 388.89C316.718 395.578 315.19 402.465 311.297 408.031C307.4 413.597 301.451 417.388 294.759 418.569L109.708 451.222ZM495.131 129.312L430.688 473.987C429.481 480.674 425.654 486.6 420.053 490.45C414.452 494.296 407.545 495.75 400.873 494.48L219.336 460.58C213.606 459.438 208.45 456.347 204.745 451.828L230.515 447.278C231.981 447.892 233.505 448.361 235.065 448.678L250.614 451.582C251.134 451.68 251.657 451.726 252.185 451.726C256.293 451.723 259.815 448.795 260.573 444.757C260.726 443.839 260.726 442.901 260.573 441.982L297.8 435.408C321.006 431.288 336.5 409.157 332.423 385.943L330.778 376.636C331.333 376.636 331.896 376.753 332.486 376.753C381.134 375.78 421.304 338.448 425.842 290.003C430.376 241.555 397.836 197.418 350.212 187.427C332.767 184.241 314.779 186.157 298.398 192.942L286.445 125.102C287.833 123.867 288.778 122.214 289.134 120.388L292.038 104.847C292.785 100.903 296.58 98.3081 300.524 99.0429L316.065 101.943C320.685 102.776 325.11 99.723 325.974 95.1069C326.834 90.4946 323.808 86.0464 319.2 85.1592L303.659 82.255C294.911 80.6485 285.988 83.9631 280.406 90.8854L276.411 68.2579C281.524 65.4241 287.465 64.4586 293.215 65.5179L474.654 99.4182C481.337 100.661 487.247 104.507 491.094 110.112C494.936 115.718 496.394 122.62 495.147 129.304L495.131 129.312Z" fill="#BEC7F7"/>
<path d="M414.925 432.769C410.289 431.905 405.833 434.966 404.969 439.602L402.057 455.139C401.311 459.079 397.523 461.674 393.579 460.947L378.03 458.043C373.41 457.21 368.982 460.263 368.122 464.879C367.262 469.496 370.287 473.94 374.895 474.831L390.436 477.735C391.93 478.017 393.442 478.157 394.963 478.161C406.677 478.142 416.719 469.789 418.872 458.274L421.784 442.733C422.199 440.505 421.71 438.198 420.424 436.326C419.138 434.458 417.16 433.18 414.925 432.769V432.769Z" fill="#BEC7F7"/>
<path d="M458.944 111.277L443.403 108.373C438.783 107.54 434.355 110.597 433.495 115.209C432.631 119.826 435.66 124.27 440.269 125.161L455.81 128.065C459.753 128.808 462.353 132.607 461.614 136.551L458.714 152.092C458.296 154.32 458.78 156.622 460.062 158.491C461.344 160.359 463.314 161.641 465.542 162.059C466.066 162.153 466.594 162.2 467.121 162.204C471.233 162.2 474.755 159.268 475.51 155.227L478.41 139.686C480.864 126.47 472.156 113.759 458.944 111.277V111.277Z" fill="#BEC7F7"/>
<path d="M411.153 151.889C411.669 151.983 412.196 152.03 412.724 152.033C416.832 152.03 420.358 149.098 421.108 145.056L422.558 137.286C423.391 132.666 420.338 128.241 415.722 127.377C411.11 126.517 406.662 129.543 405.774 134.151L404.32 141.922C403.906 144.15 404.391 146.452 405.673 148.32C406.951 150.189 408.925 151.474 411.153 151.889V151.889Z" fill="#BEC7F7"/>
<path d="M402.663 157.693C403.081 155.465 402.596 153.167 401.314 151.295C400.032 149.426 398.062 148.144 395.834 147.73L388.071 146.28C385.066 145.697 381.974 146.772 379.977 149.094C377.979 151.416 377.381 154.633 378.405 157.517C379.429 160.406 381.923 162.521 384.937 163.064L392.699 164.518C393.219 164.616 393.751 164.663 394.279 164.663C398.387 164.659 401.908 161.731 402.663 157.693V157.693Z" fill="#BEC7F7"/>
<path d="M408.487 166.163C406.259 165.749 403.961 166.234 402.088 167.516C400.22 168.798 398.938 170.768 398.524 172.996L397.062 180.759C396.647 182.987 397.132 185.285 398.414 187.157C399.696 189.025 401.666 190.308 403.894 190.722C404.414 190.823 404.942 190.874 405.473 190.874C409.581 190.87 413.103 187.947 413.857 183.909L415.319 176.138C415.738 173.91 415.253 171.604 413.971 169.736C412.689 167.864 410.719 166.578 408.487 166.163V166.163Z" fill="#BEC7F7"/>
<path d="M434.695 154.996L426.913 153.546C422.292 152.71 417.868 155.766 417.008 160.382C416.144 164.995 419.169 169.443 423.782 170.33L431.552 171.784C432.072 171.878 432.6 171.925 433.131 171.929C437.54 171.925 441.222 168.563 441.629 164.174C442.031 159.784 439.03 155.805 434.695 154.996Z" fill="#BEC7F7"/>
<path d="M109.548 102.576C110.044 102.576 110.541 102.533 111.033 102.447C113.265 102.057 115.251 100.794 116.552 98.9374C117.85 97.0808 118.362 94.7824 117.967 92.5506L116.576 84.6706C115.653 80.1326 111.283 77.1541 106.722 77.9593C102.164 78.7645 99.0766 83.0563 99.7606 87.6334L101.144 95.5134C101.863 99.5941 105.405 102.573 109.548 102.576Z" fill="#BEC7F7"/>
<path d="M88.6794 122.523C89.1758 122.523 89.6722 122.48 90.1647 122.394L98.0447 121.002C101.05 120.474 103.544 118.383 104.592 115.518C105.635 112.653 105.073 109.448 103.114 107.107C101.152 104.769 98.0955 103.655 95.0897 104.183L87.2019 105.574C82.8358 106.337 79.7831 110.312 80.1662 114.725C80.5532 119.138 84.2469 122.526 88.6794 122.523Z" fill="#BEC7F7"/>
<path d="M113.637 117.168C111.405 117.562 109.423 118.825 108.125 120.682C106.824 122.538 106.316 124.837 106.71 127.064L108.106 134.948C108.825 139.025 112.366 141.996 116.506 142C117.006 142.004 117.506 141.961 117.999 141.871C122.642 141.054 125.742 136.625 124.925 131.986L123.534 124.094C123.139 121.862 121.876 119.88 120.02 118.583C118.163 117.281 115.869 116.773 113.637 117.168Z" fill="#BEC7F7"/>
<path d="M128.103 115.565C128.599 115.565 129.096 115.522 129.588 115.436L137.476 114.045C140.482 113.517 142.975 111.422 144.019 108.557C145.063 105.688 144.5 102.483 142.538 100.145C140.579 97.8077 137.519 96.6937 134.513 97.2214L126.633 98.6129C122.271 99.379 119.218 103.35 119.601 107.763C119.98 112.176 123.674 115.561 128.103 115.565Z" fill="#BEC7F7"/>
<path d="M223.573 325.428C221.341 325.823 219.36 327.085 218.062 328.942C216.76 330.799 216.252 333.093 216.647 335.325L218.038 343.205C218.758 347.286 222.295 350.26 226.434 350.268C226.935 350.268 227.435 350.225 227.928 350.131C232.571 349.31 235.671 344.886 234.854 340.242L233.462 332.354C232.641 327.711 228.217 324.611 223.573 325.428Z" fill="#BEC7F7"/>
<path d="M211.976 351.874L204.088 353.266C199.746 354.052 196.72 358.015 197.103 362.408C197.487 366.806 201.153 370.183 205.566 370.206C206.066 370.21 206.566 370.167 207.059 370.077L214.939 368.686C219.477 367.767 222.455 363.397 221.654 358.836C220.849 354.274 216.557 351.186 211.976 351.874V351.874Z" fill="#BEC7F7"/>
<path d="M230.523 364.859C225.883 365.68 222.784 370.105 223.601 374.748L225 382.64C225.719 386.713 229.257 389.683 233.392 389.691C233.892 389.691 234.393 389.648 234.885 389.562C237.125 389.171 239.114 387.901 240.412 386.037C241.714 384.172 242.218 381.87 241.811 379.634L240.42 371.75C239.583 367.118 235.159 364.038 230.523 364.859V364.859Z" fill="#BEC7F7"/>
<path d="M261.296 351.839C260.905 349.607 259.639 347.626 257.782 346.328C255.93 345.026 253.631 344.518 251.399 344.913L243.512 346.304C239.149 347.071 236.093 351.046 236.48 355.459C236.863 359.872 240.557 363.257 244.989 363.257C245.489 363.257 245.99 363.21 246.482 363.12L254.362 361.728C256.594 361.333 258.58 360.075 259.877 358.218C261.179 356.366 261.691 354.071 261.296 351.839Z" fill="#BEC7F7"/>
<path d="M363.232 408.305C363.752 408.402 364.275 408.453 364.803 408.449C368.911 408.445 372.433 405.522 373.187 401.484L374.641 393.705C375.474 389.085 372.417 384.657 367.805 383.797C363.189 382.933 358.745 385.962 357.853 390.571L356.403 398.341C355.985 400.569 356.47 402.871 357.752 404.74C359.034 406.608 361.004 407.89 363.232 408.305V408.305Z" fill="#BEC7F7"/>
<path d="M354.695 414.113C355.555 409.477 352.498 405.021 347.863 404.157L340.092 402.703C335.539 402.004 331.247 405.045 330.399 409.575C329.554 414.109 332.458 418.491 336.957 419.483L344.728 420.934C345.248 421.031 345.772 421.082 346.299 421.078C350.411 421.078 353.937 418.151 354.695 414.113Z" fill="#BEC7F7"/>
<path d="M360.543 422.599C358.315 422.184 356.012 422.669 354.144 423.951C352.276 425.229 350.994 427.203 350.579 429.431L349.117 437.202C348.703 439.43 349.188 441.728 350.47 443.6C351.748 445.469 353.722 446.751 355.95 447.165C356.47 447.259 356.997 447.31 357.529 447.31C361.637 447.306 365.159 444.378 365.913 440.344L367.367 432.574C367.785 430.346 367.301 428.044 366.023 426.171C364.741 424.303 362.771 423.017 360.543 422.599Z" fill="#BEC7F7"/>
<path d="M369.021 416.794C368.161 421.43 371.217 425.886 375.853 426.75L383.624 428.2C384.143 428.301 384.671 428.348 385.203 428.344C389.612 428.341 393.29 424.979 393.692 420.59C394.095 416.196 391.089 412.225 386.758 411.412L378.988 409.962C376.76 409.544 374.458 410.032 372.589 411.314C370.721 412.592 369.435 414.566 369.021 416.794V416.794Z" fill="#BEC7F7"/>
</g>
<defs>
<clipPath id="clip0_318_3450">
<rect width="512" height="512" fill="white"/>
</clipPath>
</defs>
</svg>
